<svg id="Layer_1" data-name="Layer 1" xmlns="http://www.w3.org/2000/svg" width="35.6mm" height="35.27mm" viewBox="0 0 100.91 99.98">
  <defs>
    <style>
      .cls-1 {
        fill: #fff;
        stroke: #1d1d1b;
        stroke-width: 0.5px;
      }

      .cls-1, .cls-2 {
        stroke-miterlimit: 10;
      }

      .cls-2 {
        fill: none;
        stroke: #fff;
      }
    </style>
  </defs>
  <title>hit</title>
  <g>
    <path class="cls-1" d="M58.64,44.14c0-.27,0-.86,0-1.09a4.06,4.06,0,0,1,.15-1.47c.36-.65,2-.87,2.41-.88a7.51,7.51,0,0,1,1.87.21,2.69,2.69,0,0,1,1.35,1.3,5.14,5.14,0,0,1,.46,2.51c0,2.84,0,4.26,0,6.71,0,.79,0,1.49,0,2.91,0,2.11.11,4.2,0,6.94-.06,1.87-.17,3-1,3.73a8.57,8.57,0,0,0-1.08,1,6.51,6.51,0,0,0-1,1.39,6.29,6.29,0,0,0-.61,2.38,17.74,17.74,0,0,0,0,2.17c.09,4.1,0,3.62,0,4.23v1.1s-1.24.14-1.45.14c-3.69,0-12,.23-17.22-.12-.38,0-.14-1.9,0-5,.1-2.34.22-3-.1-4-.47-1.47-1.22-1.72-2.72-3.49a17.58,17.58,0,0,1-3.78-7,22.37,22.37,0,0,1-.58-4.37,18.61,18.61,0,0,0-.1-2.82,13.29,13.29,0,0,0-1-3.2c-.56-1.28-.88-1.56-1.56-3.2-.58-1.42-.61-1.89-.38-2.23.35-.54,1.22-.57,1.61-.59a3.79,3.79,0,0,1,1.88.47c2.61,1.39,4,5,4.55,6.4a20.1,20.1,0,0,1,.87,2.22c0,.1,0,.47.25.6a.47.47,0,0,0,.46,0c.39-.22.21-1.06.17-2.49,0-.57,0-1.13,0-1.7,0-4.63,0-7,0-7.67,0,0-.15-7.42-.16-10.62,0-.3,0-1,.08-1.89a3.58,3.58,0,0,1,.08-.75,2.51,2.51,0,0,1,1.21-1.38,2.7,2.7,0,0,1,2-.15A2.76,2.76,0,0,1,47,25.89a3.52,3.52,0,0,1,.36,1.77c-.15,4.4,0,13.58-.1,15.54,0,.33,0,.67,0,1a.75.75,0,0,0,.18.5"/>
    <path class="cls-1" d="M53.24,44.46c0-.47,0-.89,0-1a14.24,14.24,0,0,1,.12-2.35,4.5,4.5,0,0,1,.55-1.34A2.35,2.35,0,0,1,55.49,39a3.68,3.68,0,0,1,1.8.23c1.24.57,1.33,2.36,1.33,2.48s0,.3,0,.55c0,.55,0,1,0,1.07,0,.27,0,.54,0,.81a7.27,7.27,0,0,0,.08,1.54"/>
    <path class="cls-1" d="M47.23,45.87a11.59,11.59,0,0,0,0-1.43c0-.51,0-.95,0-1.42,0-1.79,0-1.55,0-2.93a3.19,3.19,0,0,1,.54-1.22A3.5,3.5,0,0,1,48.6,38,4.38,4.38,0,0,1,50,37.22a2.72,2.72,0,0,1,2.11.2,3.07,3.07,0,0,1,1.15,1.34,5.63,5.63,0,0,1,.15,2c0,1-.06,2-.06,2.1,0,.7-.09,1.43-.09,2.14a7.52,7.52,0,0,0,.16,1"/>
  </g>
  <circle class="cls-2" cx="49.53" cy="50.87" r="46.01"/>
</svg>
