<svg id="Layer_1" data-name="Layer 1" xmlns="http://www.w3.org/2000/svg" width="296.77mm" height="141.15mm" viewBox="0 0 841.24 400.11">
  <defs>
    <style>
      .cls-1 {
        fill: #dd2e59;
      }

      .cls-2 {
        fill: #fff;
      }

      .cls-3 {
        fill: #1d1d1b;
      }
    </style>
  </defs>
  <title>logo1_1</title>
  <path class="cls-1" d="M95.62,210.84,108,313.15a7.57,7.57,0,0,1-6.61,8.42L56.29,327a7.57,7.57,0,0,1-7.92-10.38l19.14-46.79a7.59,7.59,0,0,0-.88-7.32L36.91,221.63a7.58,7.58,0,0,1,5.22-12l45.07-5.43A7.56,7.56,0,0,1,95.62,210.84Z"/>
  <path class="cls-1" d="M761.31,211.84,749,314.15a7.57,7.57,0,0,0,6.61,8.42L800.65,328a7.57,7.57,0,0,0,7.91-10.38l-19.13-46.79a7.56,7.56,0,0,1,.88-7.32L820,222.63a7.57,7.57,0,0,0-5.22-12l-45.06-5.43A7.57,7.57,0,0,0,761.31,211.84Z"/>
  <path class="cls-1" d="M740.86,290.06a1542.59,1542.59,0,0,0-623.79,0A25.46,25.46,0,0,1,87,271q-11-49.29-22-98.59c-3-13.42,6.62-27.05,21.64-30.15a1693.58,1693.58,0,0,1,684.79,0c15,3.1,24.68,16.73,21.64,30.15Q782,221.74,771,271A25.47,25.47,0,0,1,740.86,290.06Z"/>
  <path class="cls-2" d="M655,342.53c-1.15-2.75-4.29-9.61-13.31-19.75-10.05-11.29-13.31-13.42-20-23.52a19.2,19.2,0,0,1-1.17-2c-.43-1.25-.78-2.19-1-2.75,0-.21-.05-.33-.05-.33l0,.1,0-.1s0,.12-.05.33c-.22.56-.57,1.5-1,2.75a19.2,19.2,0,0,1-1.17,2c-6.66,10.1-9.93,12.23-20,23.52-9,10.14-12.16,17-13.32,19.75-2.83,6.74-3.12,11.07-2.66,14.65a25,25,0,0,0,4,10.43c1.82,2.73,3.89,5.81,7.76,7.32,5.74,2.24,12.71-.06,16.42-4.21s3.78-12.21,3.78-12.21a18.59,18.59,0,0,0,2.08-.51c0,.28.1.55.13.87a18.62,18.62,0,0,1,0,2.23c-.11,4-.17,5.95-.2,6.38a38.6,38.6,0,0,1-1.65,8.42,44.18,44.18,0,0,1-6.35,12.88h22.91c-9-17.78-8-26.37-7.91-30.86a4,4,0,0,0,0-.44,18.52,18.52,0,0,0,3.54,1s0,8,3.77,12.21,10.68,6.45,16.43,4.21c3.86-1.51,5.94-4.59,7.76-7.32a25,25,0,0,0,4-10.43C658.17,353.6,657.87,349.27,655,342.53Z"/>
  <path class="cls-2" d="M107.52,29.1C100.11,27.78,91.2,32,86,43.05,80.69,32.32,72,27.8,64.74,29.1,53,31.19,43.87,39.05,47.41,62.85s32.74,42.88,38.72,59.93c6-17,35.17-36.14,38.72-59.93S119.22,31.19,107.52,29.1Z"/>
  <path class="cls-2" d="M738.09,333a97.71,97.71,0,0,1-17.64-26.82A97.91,97.91,0,0,1,702.8,333a122.66,122.66,0,0,1-21.71,19.16A119.88,119.88,0,0,1,708,381c7.34,11,12.43,19.08,12.43,19.08S725.53,392,732.87,381a119.88,119.88,0,0,1,26.93-28.86A122.66,122.66,0,0,1,738.09,333Z"/>
  <path class="cls-2" d="M221.45,43.81a22.51,22.51,0,0,0-10.23,2.46,22.68,22.68,0,1,0-31.65-1.2,22.68,22.68,0,1,0,13.9,29.22,40.93,40.93,0,0,1-2.36,13A23,23,0,0,1,186,96c-2.39,2.47-3.78,3.79-3.78,3.79L210,99.64s-5.82-5.51-8.91-16.15a36.85,36.85,0,0,1-1.55-11.17,22.67,22.67,0,1,0,21.9-28.51Z"/>
  <g>
    <path class="cls-2" d="M130.31,180.18q15.33-3.44,30.7-6.51c7.4-1.49,13.41-.86,17.52,1.44a14.89,14.89,0,0,1,7.69,11c1.2,6.57-2.28,11.57-8.19,14.84l.05.27c7.85.64,14,5.66,15.44,13.58,1.1,6-.09,10.52-3.36,14.48s-8.59,6.92-15.56,8.32q-15,3-30,6.35Q137.44,212.09,130.31,180.18Zm34.18,19.65c5.94-1.2,9.47-4.67,8.5-9.7-.92-4.76-5.18-6.82-11.29-5.59q-7.62,1.53-15.24,3.16l3.24,15.2C154.62,201.85,159.56,200.83,164.49,199.83Zm-8.94,30.53q7.71-1.65,15.42-3.2c6.46-1.29,9.67-5.54,8.67-10.75-1.17-6.1-6.46-8.35-12.65-7.1q-7.63,1.53-15.25,3.16Z"/>
    <path class="cls-2" d="M198.21,209.24c-2.49-13.67,5.42-26.08,19.77-28.39,15.79-2.53,25.84,7.74,28.17,24.3q-17.43,2.49-34.81,5.43c2.15,7,7,10.69,14.1,9.54,4.91-.78,7.45-3.39,8.31-7.13q6.24-1,12.49-1.85c-.6,8.5-7.06,16.52-19.2,18.45C211.44,232.1,200.7,223,198.21,209.24Zm11.89-7.17q10.71-1.81,21.45-3.45c-1.27-5.82-6-9.27-11.85-8.32C212.87,191.4,210.2,195.84,210.1,202.07Z"/>
    <path class="cls-2" d="M249.72,209.44q5.88-.83,11.77-1.6c1.56,5.23,5.76,7.07,11.44,6.37s8.49-3.15,8.11-6.42c-.52-4.45-6.67-4.19-13.39-4.62-8.83-.55-17.59-1.62-19-11.76s6.7-16.1,17.92-17.51c12.95-1.61,20.83,3.72,22.79,13q-5.83.65-11.66,1.34c-1.16-4.93-4.71-6.36-10.24-5.66-5,.63-8.13,2.89-7.69,6.24.53,4,7,3.5,14.07,4,8.32.63,17.54,1.83,18.71,12.75,1,9.37-6.52,15.86-18.34,17.33C260.44,224.61,251.88,219.22,249.72,209.44Z"/>
    <path class="cls-2" d="M291,172.35c2.26-.25,4.53-.48,6.8-.72q-.75-7.27-1.49-14.55,6.44-.66,12.88-1.27.69,7.29,1.37,14.57l8.44-.77.72,8.2-8.39.76,2.31,24.77c.33,3.46,2.4,4.46,5.2,4.21,1.59-.15,3.73-.43,3.73-.43.27,3,.53,6.08.8,9.11,0,0-2.86.43-7.87.9-6.12.56-13.12-1.11-14-9.93l-2.82-27.38-6.76.71C291.53,177.8,291.24,175.08,291,172.35Z"/>
    <path class="cls-2" d="M341.57,149.3q15.57-1.1,31.16-1.86c7.51-.36,13.33,1.15,17,4a14.94,14.94,0,0,1,5.94,12.05c.21,6.68-4,11.1-10.26,13.46,0,.1,0,.19,0,.28,7.63,1.8,13,7.68,13.19,15.72.2,6.13-1.65,10.39-5.45,13.82s-9.49,5.57-16.55,5.91q-15.25.72-30.49,1.8Zm30.72,24.53c6-.29,10-3.2,9.8-8.32-.2-4.84-4.09-7.52-10.28-7.22q-7.74.39-15.47.86.46,7.75.94,15.51Q364.78,174.21,372.29,173.83ZM359,202.69q7.83-.48,15.65-.86c6.56-.32,10.35-4,10.13-9.34-.25-6.21-5.13-9.22-11.41-8.91q-7.74.38-15.47.85Q358.43,193.55,359,202.69Z"/>
    <path class="cls-2" d="M404.61,146.25q6.63-.17,13.26-.28.56,32.68,1.1,65.37-6.33.1-12.65.28Z"/>
    <path class="cls-2" d="M456,206h-.19c-2.46,3.55-5.92,6.25-14.1,6.25-9.75,0-16.69-4.92-16.82-14.25-.15-10.33,8.54-13.75,19.38-15.2,8.07-1.08,11.79-1.66,11.83-5.23,0-3.38-2.72-5.62-8.18-5.64-6.13,0-9.09,2.1-9.46,6.58-3.84,0-7.69,0-11.53.07.28-8.22,6.65-15.57,21.13-15.52,14.85.08,20.7,6.57,20.47,17.52l-.45,23.87c-.07,3.56.45,5.68,1.55,6.52v.46q-6.09-.12-12.19-.19C456.67,210.31,456.23,208.11,456,206Zm.21-11.34c0-2.35.05-4.69.07-7-2.28,1.26-5.79,2-9,2.68-6.72,1.44-10,2.93-10,7.31s3,5.93,7.5,5.94C452.06,203.58,456.13,199.24,456.18,194.67Z"/>
    <path class="cls-2" d="M474.14,188.11c.28-14,10.16-24.59,25.23-24,12.82.53,20.34,8,21.46,18.26q-6.33-.36-12.65-.66a8.84,8.84,0,0,0-8.64-7.62c-7.85-.31-12.06,5.33-12.34,14.37-.28,8.87,3.18,14.92,10.93,15.23,5.15.21,8.92-2.26,10-7.52q6.17.3,12.33.65c-1.44,9.91-9.77,17.37-22.47,16.84C483,213.06,473.85,202.11,474.14,188.11Z"/>
    <path class="cls-2" d="M544.63,193.56c-2,1.71-4,3.43-6,5.16l-1.11,15.78q-6.27-.44-12.55-.82,2-32.64,4-65.26,6.59.39,13.15.86-1.27,18.06-2.54,36.12,9.25-8.24,18.72-16.36,7.83.65,15.65,1.38-9.9,8-19.58,16.19,8.88,15.31,17.32,30.72-7.65-.72-15.3-1.37Q550.63,204.73,544.63,193.56Z"/>
    <path class="cls-2" d="M566.45,231.81q.42-4.42.82-8.83c5.09.38,7.9.2,8.33-4.08L580.31,171q6.53.65,13,1.35-2.61,24.23-5.23,48.46c-.59,5.45-2,8.06-4.22,9.85-2.65,2.2-6.4,2.73-10.44,2.34A45.35,45.35,0,0,1,566.45,231.81Zm15.67-79.16q6.61.66,13.21,1.37-.6,5.53-1.19,11.09-6.55-.71-13.11-1.36Q581.57,158.2,582.12,152.65Z"/>
    <path class="cls-2" d="M625.57,218.3l-.18,0c-2.9,3.21-6.67,5.46-14.8,4.44-9.69-1.21-16-7-15-16.23,1.14-10.27,10.2-12.59,21.15-12.67,8.17-.07,11.94-.19,12.42-3.73.45-3.35-2-5.9-7.44-6.61-6.09-.78-9.3,1-10.22,5.35q-5.73-.69-11.47-1.35c1.3-8.12,8.54-14.63,22.93-12.78,14.76,1.93,19.78,9.09,18.19,19.93q-1.7,11.82-3.41,23.62c-.51,3.53-.25,5.7.74,6.67l-.07.45q-6-.87-12.1-1.7C625.74,222.66,625.57,220.42,625.57,218.3Zm1.62-11.22c.31-2.33.63-4.65.94-7-2.43,1-6,1.23-9.28,1.54-6.86.6-10.31,1.66-10.84,6s2.26,6.26,6.72,6.82C622,215.41,626.57,211.61,627.19,207.08Z"/>
    <path class="cls-2" d="M645.86,202.8c2-13.83,13.17-23.14,28.09-20.66,12.7,2.12,19.25,10.51,19.1,20.79q-6.25-1.14-12.51-2.23a8.85,8.85,0,0,0-7.66-8.63c-7.78-1.3-12.66,3.78-14.07,12.72-1.37,8.77,1.32,15.19,9,16.47,5.09.85,9.16-1.13,10.91-6.21q6.09,1.06,12.19,2.18c-2.66,9.65-11.89,16-24.46,13.91C651.58,228.66,643.85,216.66,645.86,202.8Z"/>
    <path class="cls-2" d="M715.37,217q-3.29,2.17-6.57,4.38l-3.06,15.52q-6.19-1.22-12.39-2.38,6-32.15,12-64.27,6.5,1.22,13,2.5-3.51,17.76-7,35.53,10.25-7,20.69-13.89,7.71,1.62,15.42,3.33-10.86,6.72-21.52,13.61,6.94,16.3,13.46,32.65-7.53-1.68-15.09-3.28Q720,228.83,715.37,217Z"/>
  </g>
  <rect class="cls-3" x="75.53" y="205.15" width="5.43" height="78.3" transform="translate(-51.53 23.02) rotate(-12.63)"/>
  <rect class="cls-3" x="776.98" y="206.23" width="5.43" height="74.18" transform="translate(1487.32 651.27) rotate(-167.37)"/>
</svg>
