<svg xmlns="http://www.w3.org/2000/svg" id="Layer_1" width="188.75" height="167.32" data-name="Layer 1" viewBox="0 0 141.57 125.48"><defs><style>.cls-1{fill:#fff}.cls-2,.cls-3,.cls-4{fill:#1d1d1b}.cls-3,.cls-4{font-family:Baskerville;font-size:17.96px}</style></defs><title>logo1</title><g><rect width="70.19" height="102.11" x="62.93" y="8.84" class="cls-1" rx="12" transform="translate(8.66 -12.28) rotate(7.5)"/><path d="M111.53,56.64a12,12,0,0,0-5.51.58,11.94,11.94,0,1,0-16.43-2.8,11.94,11.94,0,1,0,5.24,16.21,21.65,21.65,0,0,1-2.12,6.62,12.14,12.14,0,0,1-3.26,4.19c-1.41,1.12-2.23,1.72-2.23,1.72L101.73,85a20.15,20.15,0,0,1-3.54-9,19.36,19.36,0,0,1,0-5.94,11.94,11.94,0,1,0,13.39-13.38Z" class="cls-2"/><text class="cls-3" transform="translate(111.11 107.08) rotate(7.5)">A</text><text class="cls-3" transform="translate(71.48 20.86) rotate(7.5)">A</text><rect width="70.19" height="102.11" x="18.67" y="10.45" class="cls-1" rx="12" transform="translate(-21.66 30.14) rotate(-26.26)"/><path d="M63.19,51.3a11.93,11.93,0,0,0-4.26,3.54,11.94,11.94,0,1,0-15.22,6.81A11.93,11.93,0,1,0,57.08,72.21,21.52,21.52,0,0,1,59,78.89a12.11,12.11,0,0,1-.38,5.29c-.55,1.72-.9,2.67-.9,2.67l13.08-6.53a20,20,0,0,1-8-5.55,19.46,19.46,0,0,1-3.34-4.91,11.94,11.94,0,1,0,3.7-18.56Z" class="cls-2"/><text class="cls-4" transform="translate(90.86 93.47) rotate(-26.26)">K</text><text class="cls-4" transform="translate(10 43.81) rotate(-26.26)">K</text></g></svg>