<svg id="Layer_1" data-name="Layer 1" xmlns="http://www.w3.org/2000/svg" width="201" height="214" viewBox="0 0 201 214">
  <defs>
    <style>
      .cls-1, .cls-2 {
        fill: none;
        stroke-miterlimit: 10;
        stroke-width: 5px;
      }

      .cls-1 {
        stroke: #dd2e59;
      }

      .cls-2 {
        stroke: #3cc28f;
      }

      .cls-3 {
        fill: #fff;
      }
    </style>
  </defs>
  <title>logo</title>
  <g>
    <path class="cls-1" d="M189.86,108A89.92,89.92,0,1,1,10,108"/>
    <path class="cls-1" d="M143.72,186.65A89.92,89.92,0,1,1,57,29.11"/>
    <path class="cls-1" d="M139.56,27.2A89.92,89.92,0,1,1,59.73,188.36"/>
  </g>
  <g>
    <path class="cls-2" d="M181.62,109.92a81.68,81.68,0,0,1-163.36-.56"/>
    <path class="cls-2" d="M139.46,181.21A81.68,81.68,0,1,1,61.16,37.83"/>
    <path class="cls-2" d="M136.18,36.35a81.69,81.69,0,0,1-73,146.15"/>
  </g>
  <path class="cls-3" d="M164.42,94.12c-2.1-5-7.79-17.44-24.16-35.83C122,37.82,116.13,33.94,104,15.63A33.51,33.51,0,0,1,101.92,12c-.79-2.27-1.41-4-1.81-5a5.79,5.79,0,0,1-.1-.6s-.05.13-.07.18,0-.14-.07-.18a5.79,5.79,0,0,1-.1.6c-.39,1-1,2.72-1.81,5a33.28,33.28,0,0,1-2.11,3.67c-12.09,18.31-18,22.19-36.23,42.66-16.36,18.39-22,30.83-24.15,35.83-5.14,12.21-5.68,20.07-4.83,26.57a45.13,45.13,0,0,0,7.24,18.91c3.32,5,7.07,10.55,14.09,13.29,10.42,4.06,23-.12,29.79-7.65,6.88-7.69,6.84-22.14,6.84-22.14a34.82,34.82,0,0,0,3.78-.92c.09.49.18,1,.23,1.56a33,33,0,0,1,0,4.06c-.2,7.19-.3,10.78-.36,11.57a70,70,0,0,1-3,15.28A79.79,79.79,0,0,1,77.74,178h41.55C103,145.76,104.75,130.17,105,122a6.21,6.21,0,0,0-.08-.79,32,32,0,0,0,6.41,1.87s0,14.45,6.85,22.14c6.73,7.53,19.37,11.71,29.78,7.65,7-2.74,10.78-8.34,14.09-13.29a45.2,45.2,0,0,0,7.25-18.91C170.09,114.19,169.55,106.33,164.42,94.12Z"/>
</svg>
