<svg id="Layer_1" data-name="Layer 1" xmlns="http://www.w3.org/2000/svg" width="36.59mm" height="34.75mm" viewBox="0 0 103.71 98.5">
  <defs>
    <style>
      .cls-1, .cls-2, .cls-3 {
        fill: none;
        stroke: #fff;
        stroke-miterlimit: 10;
      }

      .cls-1 {
        stroke-width: 5px;
      }

      .cls-2 {
        stroke-width: 4px;
      }

      .cls-3 {
        stroke-width: 6px;
      }
    </style>
  </defs>
  <title>sm_logo</title>
  <g>
    <path class="cls-1" d="M15.33,42.59a11.41,11.41,0,0,0-5.82.27c-1,.32-5.09,1.8-6.52,5.69-1.68,4.54,1.32,9.54,4,11.8,1.07.89,1.6.95,3.19,2.36a21.35,21.35,0,0,1,4.3,5.13,19.44,19.44,0,0,1,2.36,11"/>
    <path class="cls-1" d="M88.37,42.55a11.36,11.36,0,0,1,5.83.28c1,.32,5.08,1.8,6.52,5.69,1.68,4.54-1.32,9.53-4,11.79-1.07.9-1.6,1-3.19,2.36a21.69,21.69,0,0,0-4.3,5.14,19.34,19.34,0,0,0-2.36,11"/>
    <path class="cls-1" d="M46.55,42.31a8.69,8.69,0,0,1-2.49-.14,11.66,11.66,0,0,1-4.58-2.36,13.19,13.19,0,0,0-7.63-2.08c-.26,0-5.44.43-8,4.72C21,47,23.36,52.2,23.8,53.13c.67,1.41,1,1.4,5.83,7.22,2.08,2.52,3.12,3.78,3.46,4.3,1.64,2.48,3,6.63,1.67,13.87"/>
    <path class="cls-1" d="M58.93,42.59a8.77,8.77,0,0,0,2.5-.14A11.74,11.74,0,0,0,66,40.09,13.11,13.11,0,0,1,73.64,38c.25,0,5.43.43,8,4.72,2.76,4.53.44,9.75,0,10.68-.67,1.41-1,1.39-5.83,7.21-2.08,2.52-3.13,3.78-3.47,4.31-1.63,2.47-3,6.62-1.67,13.87"/>
    <line class="cls-1" x1="15.06" y1="86.68" x2="90.7" y2="86.68"/>
    <line class="cls-1" x1="15.06" y1="96" x2="90.7" y2="96"/>
    <line class="cls-2" x1="52.72" x2="52.72" y2="17.92"/>
    <line class="cls-2" x1="44.03" y1="9.76" x2="61.1" y2="9.76"/>
    <circle class="cls-1" cx="52.95" cy="26.48" r="7.07"/>
    <line class="cls-3" x1="53.01" y1="34.96" x2="53.01" y2="76.3"/>
    <path class="cls-1" d="M52.91,76.3c0-3-3.54-4.3-3.54-9.6s3.54-6.5,3.54-9.6"/>
    <path class="cls-1" d="M53.31,76.3c0-3,3.13-4.3,3.13-9.6s-3.13-6.5-3.13-9.6"/>
  </g>
</svg>
