<svg id="Layer_1" data-name="Layer 1" xmlns="http://www.w3.org/2000/svg" width="36.37mm" height="34.1mm" viewBox="0 0 103.09 96.68">
  <defs>
    <style>
      .cls-1 {
        fill: #fff;
        stroke: #1d1d1b;
        stroke-width: 0.5px;
      }

      .cls-1, .cls-2 {
        stroke-miterlimit: 10;
      }

      .cls-2 {
        fill: none;
        stroke: #fff;
      }
    </style>
  </defs>
  <title>split</title>
  <path class="cls-1" d="M43.25,74.54a18.32,18.32,0,0,1,0-3.13c.07-2.15.22-3.08-.16-4.49a9.16,9.16,0,0,0-.64-1.69,10.38,10.38,0,0,0-2.25-2.89,12.13,12.13,0,0,1-3-5.78,13,13,0,0,1-.27-6,4.45,4.45,0,0,1,1.47-2.53,4.26,4.26,0,0,1,1.21-.64c.49-.15.75-.1,1-.32a2.64,2.64,0,0,0,.46-1.48,12.78,12.78,0,0,0-.39-2.83A27.46,27.46,0,0,0,40,40.07c-.29-1-.12-.52-1-4-.72-2.81-1.09-4.21-1.37-5.23s-.48-1.94-.73-2.91a7.3,7.3,0,0,1-.39-3.09,2.62,2.62,0,0,1,.61-1.5,2.3,2.3,0,0,1,1.12-.67,2.43,2.43,0,0,1,1.59.16,3.83,3.83,0,0,1,2,2.36c2.73,8.9,4.09,14.39,4.09,14.39,0,.45.84,4.19.9,4.22S50.27,25.53,50.56,24c0-.09.39-1.32.6-1.81s.71-.75.87-.9.95-.18,1.84-.17a2,2,0,0,1,1.66.85A5,5,0,0,1,56,23.57a4.54,4.54,0,0,1-.15,1.7c-1.36,4.52-2,10.5-3.34,15.63l-.4,2.57c.09,0,.52-2.25,1.23-2.8a2.91,2.91,0,0,1,1.4-.57,2.81,2.81,0,0,1,2.17.67,4,4,0,0,1,.79,1.87,4,4,0,0,1,.9-1.36,2.6,2.6,0,0,1,1.57-.45,2.86,2.86,0,0,1,1.37.2,2.83,2.83,0,0,1,1.31,1.65c1.4,3.77.27,14.5.36,17.1a12.81,12.81,0,0,1,0,1.52,4.5,4.5,0,0,1-.89,1.62,13.92,13.92,0,0,0-1.56,2.24,5.8,5.8,0,0,0-.37,1.67,44.76,44.76,0,0,0-.16,6.42,6.42,6.42,0,0,1,0,1.41Z"/>
  <circle class="cls-2" cx="49.96" cy="47.87" r="46.01"/>
</svg>
