<svg id="Layer_1" data-name="Layer 1" xmlns="http://www.w3.org/2000/svg" width="36.39mm" height="35.27mm" viewBox="0 0 103.17 99.98">
  <defs>
    <style>
      .cls-1 {
        fill: #fff;
        stroke: #1d1d1b;
        stroke-width: 0.5px;
      }

      .cls-1, .cls-2 {
        stroke-miterlimit: 10;
      }

      .cls-2 {
        fill: none;
        stroke: #fff;
      }
    </style>
  </defs>
  <title>stand</title>
  <path class="cls-1" d="M42,75.36a14,14,0,0,1,.15-2.55,30.72,30.72,0,0,0,0-5,5.73,5.73,0,0,0-.68-2.7,5,5,0,0,0-2.1-1.65c-2-1.12-2.73-3.77-4.27-9.07-.33-1.14-.92-3.32-1.42-5.24a14.4,14.4,0,0,0-1.2-3.75,13.61,13.61,0,0,0-2.1-3.3A1,1,0,0,1,30,41.5a.92.92,0,0,1,.11-.6c.37-.7,1.65-.73,1.84-.74a5.11,5.11,0,0,1,3,1.05,14.1,14.1,0,0,1,5.14,7.66,1.1,1.1,0,0,0,.25.66,1.3,1.3,0,0,0,1.11.34c.89-.16,1.32-1.31,1.47-1.73a4.63,4.63,0,0,0,.29-1.59c-.13-6.22,0-12.43-.12-18.65,0-.19,0-.39,0-1a4.31,4.31,0,0,1,0-.91,2,2,0,0,1,.77-1,1.74,1.74,0,0,1,3,.57,4.39,4.39,0,0,1,.6,2c.11,3.22,0,10.36.11,13.62a12.54,12.54,0,0,0,.06,1.4c.13,0,.41-16,.31-17.4a7.36,7.36,0,0,1,0-1,2.53,2.53,0,0,1,.11-.85,1.84,1.84,0,0,1,1.14-.88A2.44,2.44,0,0,1,51,22.26a2.53,2.53,0,0,1,1.39,1.41,3.54,3.54,0,0,1,.31,1.25,14.94,14.94,0,0,1,.12,2.78c0,.24,0,4.74,0,13.74,0,.58,0,1.1,0,1.11s1-15.31.8-16.49a1.15,1.15,0,0,1,0-.54,1.56,1.56,0,0,1,.59-.8,2.31,2.31,0,0,1,2-.45,2.27,2.27,0,0,1,1.33,1.22A3.23,3.23,0,0,1,58,27.16c-.13,5,.21,9.92.2,14.87,0,0,0,.54,0,.54s.62-10.79.57-12.43a5.49,5.49,0,0,1,.05-.93,2.7,2.7,0,0,1,.32-1.14,2.1,2.1,0,0,1,1.27-.85,2.19,2.19,0,0,1,1.68.2A2.44,2.44,0,0,1,63,29.07c.85,4.31.69,28.18.61,30.11,0,.38-.07,1.09-.16,1.82a7.83,7.83,0,0,1-.35,1.84c-.84,2-.9,1.87-1.66,2.52a3.25,3.25,0,0,0-.73,1.11,3.57,3.57,0,0,0-.25,1.61,71.8,71.8,0,0,1,0,7.63Z"/>
  <circle class="cls-2" cx="50.81" cy="49.74" r="46.01"/>
</svg>
