<svg id="Layer_1" data-name="Layer 1" xmlns="http://www.w3.org/2000/svg" xmlns:xlink="http://www.w3.org/1999/xlink" width="1440" height="816" viewBox="0 0 1440 816">
  <defs>
    <style>
      .cls-1, .cls-5, .cls-8 {
        fill: none;
      }

      .cls-2 {
        fill: #42210b;
      }

      .cls-3 {
        fill: #c69c6d;
      }

      .cls-4 {
        fill: url(#radial-gradient);
      }

      .cls-5 {
        stroke: #919191;
        stroke-linecap: round;
        stroke-width: 10px;
        opacity: 0.3;
      }

      .cls-5, .cls-8 {
        stroke-miterlimit: 10;
      }

      .cls-6 {
        fill: #3cc28f;
      }

      .cls-7 {
        fill: #efefef;
      }

      .cls-8 {
        stroke: #999;
        stroke-width: 2px;
      }

      .cls-9 {
        font-size: 10.45px;
        fill: #fff;
        font-family: NHaasGroteskDSPro-75Bd, Neue Haas Grotesk Display Pro;
      }

      .cls-10 {
        fill: #dd2e59;
      }

      .cls-11 {
        fill: #17161c;
      }
    </style>
    <radialGradient id="radial-gradient" cx="718" cy="266.75" r="624.36" gradientUnits="userSpaceOnUse">
      <stop offset="0" stop-color="#22b573"/>
      <stop offset="1" stop-color="#2e963d"/>
    </radialGradient>
  </defs>
  <title>Artboard 1</title>
  <g>
    <path class="cls-1" d="M1287.52,790.39A393.21,393.21,0,0,1,1146.66,816H312.45a396.21,396.21,0,0,1-145.32-27.31C97.27,761.15,39.25,718.8,2,662.7V1024H1442V671.14C1406.81,724.26,1353.48,765.08,1287.52,790.39Z"/>
    <path class="cls-2" d="M167.13,788.69A396.21,396.21,0,0,0,312.45,816h834.21a393.21,393.21,0,0,0,140.86-25.61c66-25.31,119.29-66.13,154.48-119.25V612c-31.47,71.74-92.16,126-171.78,156.86A379.15,379.15,0,0,1,1133.34,794H322.72a382.05,382.05,0,0,1-141.2-26.78C100.19,734.87,35.37,681.68,2,609.43V662.7C39.25,718.8,97.27,761.15,167.13,788.69Z"/>
    <path class="cls-2" d="M181.52,767.22A382.05,382.05,0,0,0,322.72,794h810.62a379.15,379.15,0,0,0,136.88-25.11C1349.84,738.07,1410.53,683.77,1442,612V584c-48.64,105.39-155.44,179-278.6,179H276.6A306,306,0,0,1,60.06,672.94,293.63,293.63,0,0,1,2,588.4v21C35.37,681.68,100.19,734.87,181.52,767.22Z"/>
    <path class="cls-3" d="M137.76,729.55A310.21,310.21,0,0,0,276.6,763h886.8c123.16,0,230-73.61,278.6-179V537.85C1401.94,660.63,1286.11,750,1150.4,750H285.6C158,750,48,671,2,559.54V588.4a293.63,293.63,0,0,0,58.06,84.54A310.94,310.94,0,0,0,137.76,729.55Z"/>
    <path class="cls-3" d="M1442,0h-87a707.94,707.94,0,0,1,87,160.07Z"/>
    <path class="cls-4" d="M1442,0h-87a707.94,707.94,0,0,1,87,160.07Z"/>
    <path class="cls-3" d="M2,0V165.32A707.28,707.28,0,0,1,91,0Z"/>
    <path class="cls-4" d="M2,0V165.32A707.28,707.28,0,0,1,91,0Z"/>
    <path class="cls-3" d="M91,0A707.28,707.28,0,0,0,2,165.32V215A694.22,694.22,0,0,1,103.23,0Z"/>
    <path class="cls-4" d="M91,0A707.28,707.28,0,0,0,2,165.32V215A694.22,694.22,0,0,1,103.23,0Z"/>
    <path class="cls-3" d="M1442,160.07A707.94,707.94,0,0,0,1355,0h-14.89A694.15,694.15,0,0,1,1442,217.39Z"/>
    <path class="cls-4" d="M1442,160.07A707.94,707.94,0,0,0,1355,0h-14.89A694.15,694.15,0,0,1,1442,217.39Z"/>
    <path class="cls-3" d="M285.6,750h864.8c135.71,0,251.54-89.37,291.6-212.15V217.39A694.15,694.15,0,0,0,1340.09,0H103.23A694.22,694.22,0,0,0,2,215V559.54C48,671,158,750,285.6,750Z"/>
    <path class="cls-4" d="M285.6,750h864.8c135.71,0,251.54-89.37,291.6-212.15V217.39A694.15,694.15,0,0,0,1340.09,0H103.23A694.22,694.22,0,0,0,2,215V559.54C48,671,158,750,285.6,750Z"/>
  </g>
  <path class="cls-5" d="M1262,778c-43.65,16.9-78.59,12.11-125.35,12.11H326c-48.31,0-83.1.76-128-17.11"/>
  <g>
    <g>
      <circle class="cls-6" cx="129.72" cy="563.56" r="41.78"/>
      <g>
        <rect class="cls-7" x="123.45" y="521.78" width="13.06" height="83.57"/>
        <rect class="cls-7" x="123.19" y="521.52" width="13.06" height="83.57" transform="translate(693.02 433.58) rotate(90)"/>
        <rect class="cls-7" x="123.06" y="521.78" width="13.06" height="83.84" transform="translate(436.55 73.47) rotate(45)"/>
        <rect class="cls-7" x="123.45" y="521.57" width="13.06" height="83.47" transform="translate(-360.24 256.9) rotate(-45)"/>
      </g>
      <circle class="cls-8" cx="129.9" cy="563.83" r="41.78"/>
      <circle class="cls-6" cx="129.93" cy="561.78" r="27.37"/>
      <text class="cls-9" transform="translate(112.72 566.3)">500KR</text>
    </g>
    <g>
      <circle class="cls-6" cx="129.72" cy="561.47" r="41.78"/>
      <g>
        <rect class="cls-7" x="123.45" y="519.69" width="13.06" height="83.57"/>
        <rect class="cls-7" x="123.19" y="519.43" width="13.06" height="83.57" transform="translate(690.93 431.49) rotate(90)"/>
        <rect class="cls-7" x="123.06" y="519.69" width="13.06" height="83.84" transform="translate(435.07 72.86) rotate(45)"/>
        <rect class="cls-7" x="123.45" y="519.48" width="13.06" height="83.47" transform="translate(-358.77 256.29) rotate(-45)"/>
      </g>
      <circle class="cls-8" cx="129.9" cy="561.74" r="41.78"/>
      <circle class="cls-6" cx="129.93" cy="559.69" r="27.37"/>
      <text class="cls-9" transform="translate(112.72 564.21)">500KR</text>
    </g>
    <g>
      <circle class="cls-6" cx="129.72" cy="559.38" r="41.78"/>
      <g>
        <rect class="cls-7" x="123.45" y="517.6" width="13.06" height="83.57"/>
        <rect class="cls-7" x="123.19" y="517.34" width="13.06" height="83.57" transform="translate(688.84 429.4) rotate(90)"/>
        <rect class="cls-7" x="123.06" y="517.6" width="13.06" height="83.84" transform="translate(433.59 72.24) rotate(45)"/>
        <rect class="cls-7" x="123.45" y="517.39" width="13.06" height="83.47" transform="translate(-357.29 255.67) rotate(-45)"/>
      </g>
      <circle class="cls-8" cx="129.9" cy="559.66" r="41.78"/>
      <circle class="cls-6" cx="129.93" cy="557.6" r="27.37"/>
      <text class="cls-9" transform="translate(112.72 562.12)">500KR</text>
    </g>
    <g>
      <circle class="cls-6" cx="129.72" cy="556.77" r="41.78"/>
      <g>
        <rect class="cls-7" x="123.45" y="514.99" width="13.06" height="83.57"/>
        <rect class="cls-7" x="123.19" y="514.73" width="13.06" height="83.57" transform="translate(686.23 426.79) rotate(90)"/>
        <rect class="cls-7" x="123.06" y="514.99" width="13.06" height="83.84" transform="translate(431.75 71.48) rotate(45)"/>
        <rect class="cls-7" x="123.45" y="514.78" width="13.06" height="83.47" transform="translate(-355.44 254.91) rotate(-45)"/>
      </g>
      <circle class="cls-8" cx="129.9" cy="557.04" r="41.78"/>
      <circle class="cls-6" cx="129.93" cy="554.99" r="27.37"/>
      <text class="cls-9" transform="translate(112.72 559.51)">500KR</text>
    </g>
    <g>
      <circle class="cls-6" cx="129.72" cy="554.68" r="41.78"/>
      <g>
        <rect class="cls-7" x="123.45" y="512.9" width="13.06" height="83.57"/>
        <rect class="cls-7" x="123.19" y="512.64" width="13.06" height="83.57" transform="translate(684.14 424.7) rotate(90)"/>
        <rect class="cls-7" x="123.06" y="512.9" width="13.06" height="83.84" transform="translate(430.27 70.87) rotate(45)"/>
        <rect class="cls-7" x="123.45" y="512.69" width="13.06" height="83.47" transform="translate(-353.97 254.3) rotate(-45)"/>
      </g>
      <circle class="cls-8" cx="129.9" cy="554.96" r="41.78"/>
      <circle class="cls-6" cx="129.93" cy="552.9" r="27.37"/>
      <text class="cls-9" transform="translate(112.72 557.42)">500KR</text>
    </g>
    <g>
      <circle class="cls-6" cx="129.72" cy="552.59" r="41.78"/>
      <g>
        <rect class="cls-7" x="123.45" y="510.81" width="13.06" height="83.57"/>
        <rect class="cls-7" x="123.19" y="510.55" width="13.06" height="83.57" transform="translate(682.05 422.61) rotate(90)"/>
        <rect class="cls-7" x="123.06" y="510.81" width="13.06" height="83.84" transform="translate(428.79 70.26) rotate(45)"/>
        <rect class="cls-7" x="123.45" y="510.6" width="13.06" height="83.47" transform="translate(-352.49 253.68) rotate(-45)"/>
      </g>
      <circle class="cls-8" cx="129.9" cy="552.87" r="41.78"/>
      <circle class="cls-6" cx="129.93" cy="550.81" r="27.37"/>
      <text class="cls-9" transform="translate(112.72 555.33)">500KR</text>
    </g>
    <g>
      <circle class="cls-6" cx="130.24" cy="550.51" r="41.78"/>
      <g>
        <rect class="cls-7" x="123.97" y="508.72" width="13.06" height="83.57"/>
        <rect class="cls-7" x="123.71" y="508.46" width="13.06" height="83.57" transform="translate(680.49 420) rotate(90)"/>
        <rect class="cls-7" x="123.58" y="508.72" width="13.06" height="83.84" transform="translate(427.47 69.28) rotate(45)"/>
        <rect class="cls-7" x="123.97" y="508.51" width="13.06" height="83.47" transform="translate(-350.86 253.44) rotate(-45)"/>
      </g>
      <circle class="cls-8" cx="130.42" cy="550.78" r="41.78"/>
      <circle class="cls-6" cx="130.46" cy="548.72" r="27.37"/>
      <text class="cls-9" transform="translate(113.24 553.24)">500KR</text>
    </g>
    <g>
      <circle class="cls-6" cx="130.24" cy="548.42" r="41.78"/>
      <g>
        <rect class="cls-7" x="123.97" y="506.63" width="13.06" height="83.57"/>
        <rect class="cls-7" x="123.71" y="506.37" width="13.06" height="83.57" transform="translate(678.4 417.91) rotate(90)"/>
        <rect class="cls-7" x="123.58" y="506.63" width="13.06" height="83.84" transform="translate(425.99 68.66) rotate(45)"/>
        <rect class="cls-7" x="123.97" y="506.42" width="13.06" height="83.47" transform="translate(-349.38 252.83) rotate(-45)"/>
      </g>
      <circle class="cls-8" cx="130.42" cy="548.69" r="41.78"/>
      <circle class="cls-6" cx="130.46" cy="546.64" r="27.37"/>
      <text class="cls-9" transform="translate(113.24 551.15)">500KR</text>
    </g>
    <g>
      <circle class="cls-6" cx="130.24" cy="545.8" r="41.78"/>
      <g>
        <rect class="cls-7" x="123.97" y="504.02" width="13.06" height="83.57"/>
        <rect class="cls-7" x="123.71" y="503.76" width="13.06" height="83.57" transform="translate(675.79 415.3) rotate(90)"/>
        <rect class="cls-7" x="123.58" y="504.02" width="13.06" height="83.84" transform="translate(424.14 67.9) rotate(45)"/>
        <rect class="cls-7" x="123.97" y="503.81" width="13.06" height="83.47" transform="translate(-347.53 252.07) rotate(-45)"/>
      </g>
      <circle class="cls-8" cx="130.42" cy="546.08" r="41.78"/>
      <circle class="cls-6" cx="130.46" cy="544.02" r="27.37"/>
      <text class="cls-9" transform="translate(113.24 548.54)">500KR</text>
    </g>
    <g>
      <circle class="cls-6" cx="130.24" cy="543.72" r="41.78"/>
      <g>
        <rect class="cls-7" x="123.97" y="501.93" width="13.06" height="83.57"/>
        <rect class="cls-7" x="123.71" y="501.67" width="13.06" height="83.57" transform="translate(673.7 413.21) rotate(90)"/>
        <rect class="cls-7" x="123.58" y="501.93" width="13.06" height="83.84" transform="translate(422.67 67.29) rotate(45)"/>
        <rect class="cls-7" x="123.97" y="501.72" width="13.06" height="83.47" transform="translate(-346.06 251.45) rotate(-45)"/>
      </g>
      <circle class="cls-8" cx="130.42" cy="543.99" r="41.78"/>
      <circle class="cls-6" cx="130.46" cy="541.94" r="27.37"/>
      <text class="cls-9" transform="translate(113.24 546.45)">500KR</text>
    </g>
    <g>
      <circle class="cls-6" cx="130.24" cy="541.1" r="41.78"/>
      <g>
        <rect class="cls-7" x="123.97" y="499.32" width="13.06" height="83.57"/>
        <rect class="cls-7" x="123.71" y="499.06" width="13.06" height="83.57" transform="translate(671.08 410.6) rotate(90)"/>
        <rect class="cls-7" x="123.58" y="499.32" width="13.06" height="83.84" transform="translate(420.82 66.52) rotate(45)"/>
        <rect class="cls-7" x="123.97" y="499.11" width="13.06" height="83.47" transform="translate(-344.21 250.69) rotate(-45)"/>
      </g>
      <circle class="cls-8" cx="130.42" cy="541.38" r="41.78"/>
      <circle class="cls-6" cx="130.46" cy="539.32" r="27.37"/>
      <text class="cls-9" transform="translate(113.24 543.84)">500KR</text>
    </g>
  </g>
  <g>
    <g>
      <circle class="cls-10" cx="258.52" cy="568.82" r="41.78"/>
      <g>
        <rect class="cls-7" x="252.25" y="527.04" width="13.06" height="83.57"/>
        <rect class="cls-7" x="251.99" y="526.77" width="13.06" height="83.57" transform="translate(827.08 310.04) rotate(90)"/>
        <rect class="cls-7" x="251.86" y="527.03" width="13.06" height="83.84" transform="translate(477.99 -16.07) rotate(45)"/>
        <rect class="cls-7" x="252.25" y="526.83" width="13.06" height="83.47" transform="translate(-326.24 349.51) rotate(-45)"/>
      </g>
      <circle class="cls-8" cx="258.69" cy="569.09" r="41.78"/>
      <circle class="cls-10" cx="258.73" cy="567.04" r="27.37"/>
      <text class="cls-9" transform="translate(241.52 571.56)">500KR</text>
    </g>
    <g>
      <circle class="cls-10" cx="258.52" cy="566.73" r="41.78"/>
      <g>
        <rect class="cls-7" x="252.25" y="524.95" width="13.06" height="83.57"/>
        <rect class="cls-7" x="251.99" y="524.69" width="13.06" height="83.57" transform="translate(824.99 307.95) rotate(90)"/>
        <rect class="cls-7" x="251.86" y="524.94" width="13.06" height="83.84" transform="translate(476.51 -16.68) rotate(45)"/>
        <rect class="cls-7" x="252.25" y="524.74" width="13.06" height="83.47" transform="translate(-324.76 348.9) rotate(-45)"/>
      </g>
      <circle class="cls-8" cx="258.69" cy="567" r="41.78"/>
      <circle class="cls-10" cx="258.73" cy="564.95" r="27.37"/>
      <text class="cls-9" transform="translate(241.52 569.47)">500KR</text>
    </g>
    <g>
      <circle class="cls-10" cx="258.52" cy="564.64" r="41.78"/>
      <g>
        <rect class="cls-7" x="252.25" y="522.86" width="13.06" height="83.57"/>
        <rect class="cls-7" x="251.99" y="522.6" width="13.06" height="83.57" transform="translate(822.9 305.86) rotate(90)"/>
        <rect class="cls-7" x="251.86" y="522.85" width="13.06" height="83.84" transform="translate(475.03 -17.29) rotate(45)"/>
        <rect class="cls-7" x="252.25" y="522.65" width="13.06" height="83.47" transform="translate(-323.28 348.29) rotate(-45)"/>
      </g>
      <circle class="cls-8" cx="258.69" cy="564.91" r="41.78"/>
      <circle class="cls-10" cx="258.73" cy="562.86" r="27.37"/>
      <text class="cls-9" transform="translate(241.52 567.38)">500KR</text>
    </g>
    <g>
      <circle class="cls-10" cx="258.52" cy="562.55" r="41.78"/>
      <g>
        <rect class="cls-7" x="252.25" y="520.77" width="13.06" height="83.57"/>
        <rect class="cls-7" x="251.99" y="520.51" width="13.06" height="83.57" transform="translate(820.81 303.77) rotate(90)"/>
        <rect class="cls-7" x="251.86" y="520.76" width="13.06" height="83.84" transform="translate(473.56 -17.9) rotate(45)"/>
        <rect class="cls-7" x="252.25" y="520.56" width="13.06" height="83.47" transform="translate(-321.81 347.68) rotate(-45)"/>
      </g>
      <circle class="cls-8" cx="258.69" cy="562.82" r="41.78"/>
      <circle class="cls-10" cx="258.73" cy="560.77" r="27.37"/>
      <text class="cls-9" transform="translate(241.52 565.29)">500KR</text>
    </g>
    <g>
      <circle class="cls-10" cx="258.52" cy="560.46" r="41.78"/>
      <g>
        <rect class="cls-7" x="252.25" y="518.68" width="13.06" height="83.57"/>
        <rect class="cls-7" x="251.99" y="518.42" width="13.06" height="83.57" transform="translate(818.72 301.68) rotate(90)"/>
        <rect class="cls-7" x="251.86" y="518.68" width="13.06" height="83.84" transform="translate(472.08 -18.51) rotate(45)"/>
        <rect class="cls-7" x="252.25" y="518.47" width="13.06" height="83.47" transform="translate(-320.33 347.06) rotate(-45)"/>
      </g>
      <circle class="cls-8" cx="258.69" cy="560.73" r="41.78"/>
      <circle class="cls-10" cx="258.73" cy="558.68" r="27.37"/>
      <text class="cls-9" transform="translate(241.52 563.2)">500KR</text>
    </g>
    <g>
      <circle class="cls-10" cx="259.04" cy="558.37" r="41.78"/>
      <g>
        <rect class="cls-7" x="252.77" y="516.59" width="13.06" height="83.57"/>
        <rect class="cls-7" x="252.51" y="516.33" width="13.06" height="83.57" transform="translate(817.15 299.07) rotate(90)"/>
        <rect class="cls-7" x="252.38" y="516.59" width="13.06" height="83.84" transform="translate(470.76 -19.49) rotate(45)"/>
        <rect class="cls-7" x="252.77" y="516.38" width="13.06" height="83.47" transform="translate(-318.7 346.82) rotate(-45)"/>
      </g>
      <circle class="cls-8" cx="259.22" cy="558.65" r="41.78"/>
      <circle class="cls-10" cx="259.25" cy="556.59" r="27.37"/>
      <text class="cls-9" transform="translate(242.04 561.11)">100KR</text>
    </g>
  </g>
  <g>
    <g>
      <circle class="cls-11" cx="191.96" cy="662.47" r="41.78"/>
      <g>
        <rect class="cls-7" x="185.69" y="620.69" width="13.06" height="83.57"/>
        <rect class="cls-7" x="185.43" y="620.42" width="13.06" height="83.57" transform="translate(854.16 470.25) rotate(90)"/>
        <rect class="cls-7" x="185.3" y="620.68" width="13.06" height="83.84" transform="translate(524.71 58.43) rotate(45)"/>
        <rect class="cls-7" x="185.69" y="620.47" width="13.06" height="83.47" transform="translate(-411.95 329.87) rotate(-45)"/>
      </g>
      <circle class="cls-8" cx="192.13" cy="662.74" r="41.78"/>
      <circle class="cls-11" cx="192.17" cy="660.69" r="27.37"/>
      <text class="cls-9" transform="translate(174.96 665.21)">500KR</text>
    </g>
    <g>
      <circle class="cls-11" cx="192.48" cy="660.38" r="41.78"/>
      <g>
        <rect class="cls-7" x="186.21" y="618.6" width="13.06" height="83.57"/>
        <rect class="cls-7" x="185.95" y="618.33" width="13.06" height="83.57" transform="translate(852.6 467.64) rotate(90)"/>
        <rect class="cls-7" x="185.82" y="618.59" width="13.06" height="83.84" transform="translate(523.39 57.45) rotate(45)"/>
        <rect class="cls-7" x="186.21" y="618.39" width="13.06" height="83.47" transform="translate(-410.32 329.63) rotate(-45)"/>
      </g>
      <circle class="cls-8" cx="192.66" cy="660.65" r="41.78"/>
      <circle class="cls-11" cx="192.69" cy="658.6" r="27.37"/>
      <text class="cls-9" transform="translate(175.48 663.12)">500KR</text>
    </g>
    <g>
      <circle class="cls-11" cx="193" cy="658.29" r="41.78"/>
      <g>
        <rect class="cls-7" x="186.73" y="616.51" width="13.06" height="83.57"/>
        <rect class="cls-7" x="186.47" y="616.25" width="13.06" height="83.57" transform="translate(851.03 465.03) rotate(90)"/>
        <rect class="cls-7" x="186.34" y="616.5" width="13.06" height="83.84" transform="translate(522.06 56.47) rotate(45)"/>
        <rect class="cls-7" x="186.73" y="616.3" width="13.06" height="83.47" transform="translate(-408.69 329.39) rotate(-45)"/>
      </g>
      <circle class="cls-8" cx="193.18" cy="658.56" r="41.78"/>
      <circle class="cls-11" cx="193.21" cy="656.51" r="27.37"/>
      <text class="cls-9" transform="translate(176 661.03)">500KR</text>
    </g>
    <circle class="cls-11" cx="193.13" cy="656.53" r="41.78"/>
    <g>
      <rect class="cls-7" x="186.86" y="614.75" width="13.06" height="83.57"/>
      <rect class="cls-7" x="186.6" y="614.49" width="13.06" height="83.57" transform="translate(849.4 463.14) rotate(90)"/>
      <rect class="cls-7" x="186.47" y="614.74" width="13.06" height="83.84" transform="translate(520.86 55.86) rotate(45)"/>
      <rect class="cls-7" x="186.86" y="614.54" width="13.06" height="83.47" transform="translate(-407.41 328.96) rotate(-45)"/>
    </g>
    <circle class="cls-8" cx="193.3" cy="656.8" r="41.78"/>
    <circle class="cls-11" cx="193.34" cy="654.75" r="27.37"/>
    <text class="cls-9" transform="translate(176.13 659.27)">500KR</text>
    <circle class="cls-11" cx="192.69" cy="654.65" r="41.78"/>
    <g>
      <rect class="cls-7" x="186.42" y="612.87" width="13.06" height="83.57"/>
      <rect class="cls-7" x="186.16" y="612.61" width="13.06" height="83.57" transform="translate(847.08 461.7) rotate(90)"/>
      <rect class="cls-7" x="186.03" y="612.86" width="13.06" height="83.84" transform="translate(519.4 55.62) rotate(45)"/>
      <rect class="cls-7" x="186.42" y="612.66" width="13.06" height="83.47" transform="translate(-406.21 328.1) rotate(-45)"/>
    </g>
    <circle class="cls-8" cx="192.86" cy="654.92" r="41.78"/>
    <circle class="cls-11" cx="192.9" cy="652.87" r="27.37"/>
    <text class="cls-9" transform="translate(175.69 657.39)">500KR</text>
    <circle class="cls-11" cx="193.1" cy="652.92" r="41.78"/>
    <g>
      <rect class="cls-7" x="186.83" y="611.13" width="13.06" height="83.57"/>
      <rect class="cls-7" x="186.57" y="610.87" width="13.06" height="83.57" transform="translate(845.75 459.56) rotate(90)"/>
      <rect class="cls-7" x="186.44" y="611.13" width="13.06" height="83.84" transform="translate(518.29 54.83) rotate(45)"/>
      <rect class="cls-7" x="186.83" y="610.92" width="13.06" height="83.47" transform="translate(-404.86 327.88) rotate(-45)"/>
    </g>
    <circle class="cls-8" cx="193.27" cy="653.19" r="41.78"/>
    <circle class="cls-11" cx="193.31" cy="651.14" r="27.37"/>
    <text class="cls-9" transform="translate(176.1 655.65)">500KR</text>
    <circle class="cls-11" cx="193.1" cy="650.83" r="41.78"/>
    <g>
      <rect class="cls-7" x="186.83" y="609.04" width="13.06" height="83.57"/>
      <rect class="cls-7" x="186.57" y="608.78" width="13.06" height="83.57" transform="translate(843.66 457.47) rotate(90)"/>
      <rect class="cls-7" x="186.44" y="609.04" width="13.06" height="83.84" transform="translate(516.81 54.21) rotate(45)"/>
      <rect class="cls-7" x="186.83" y="608.83" width="13.06" height="83.47" transform="translate(-403.39 327.27) rotate(-45)"/>
    </g>
    <circle class="cls-8" cx="193.27" cy="651.1" r="41.78"/>
    <circle class="cls-11" cx="193.31" cy="649.05" r="27.37"/>
    <text class="cls-9" transform="translate(179.31 652.5)">50KR</text>
  </g>
</svg>
