<svg xmlns="http://www.w3.org/2000/svg" xmlns:xlink="http://www.w3.org/1999/xlink" id="Layer_1" width="1440" height="1315" data-name="Layer 1" viewBox="0 0 1440 1315"><defs><style>.cls-1,.cls-5,.cls-8{fill:none}.cls-2{fill:#42210b}.cls-3{fill:#c69c6d}.cls-4{fill:url(#radial-gradient)}.cls-5{stroke:#919191;stroke-linecap:round;stroke-width:10px;opacity:.3}.cls-5,.cls-8{stroke-miterlimit:10}.cls-6{opacity:.6}.cls-7{fill:#fff}.cls-8{stroke:#fff}</style><radialGradient id="radial-gradient" cx="718" cy="501.75" r="624.36" gradientTransform="translate(0 -301.78) scale(1 1.28)" gradientUnits="userSpaceOnUse"><stop offset="0" stop-color="#22b573"/><stop offset="1" stop-color="#2e963d"/></radialGradient></defs><title>bg-table</title><g><path d="M1287.52,1015a317.24,317.24,0,0,1-140.86,32.89H312.45a320.42,320.42,0,0,1-145.32-35.07C97.27,977.45,39.25,923.07,2,851v464H1442V861.86C1406.81,930.08,1353.48,982.51,1287.52,1015Z" class="cls-1" transform="translate(-2)"/><path d="M167.13,1012.82a320.42,320.42,0,0,0,145.32,35.07h834.21A317.24,317.24,0,0,0,1287.52,1015c66-32.49,119.29-84.92,154.48-153.14V786c-31.47,92.13-92.16,161.85-171.78,201.43a306,306,0,0,1-136.88,32.25H322.72c-48.3,0-96.26-11.44-141.2-34.39C100.19,943.71,35.37,875.39,2,782.62V851C39.25,923.07,97.27,977.45,167.13,1012.82Z" class="cls-2" transform="translate(-2)"/><path d="M181.52,985.25c44.94,23,92.9,34.39,141.2,34.39h810.62a306,306,0,0,0,136.88-32.25C1349.84,947.81,1410.53,878.09,1442,786V750c-48.64,135.34-155.44,229.87-278.6,229.87H276.6c-28.68-.2-81.64-5.53-138.84-43-11.49-7.52-45.42-30.9-77.7-72.7C33.75,830.09,15.16,792.35,2,755.61v27C35.37,875.39,100.19,943.71,181.52,985.25Z" class="cls-2" transform="translate(-2)"/><path d="M137.76,936.87c57.2,37.43,110.16,42.76,138.84,43h886.8c123.16,0,230-94.53,278.6-229.87V690.7c-40.06,157.67-155.89,272.43-291.6,272.43H285.6C158,963.13,48,861.71,2,718.55v37.06c13.16,36.74,31.75,74.48,58.06,108.56C92.34,906,126.27,929.35,137.76,936.87Z" class="cls-3" transform="translate(-2)"/><path d="M1442,0h-87a1012.45,1012.45,0,0,1,87,205.56Z" class="cls-3" transform="translate(-2)"/><path d="M1442,0h-87a1012.45,1012.45,0,0,1,87,205.56Z" class="cls-4" transform="translate(-2)"/><path d="M2,0V212.3C24.33,136.22,54.42,64.91,91,0Z" class="cls-3" transform="translate(-2)"/><path d="M2,0V212.3C24.33,136.22,54.42,64.91,91,0Z" class="cls-4" transform="translate(-2)"/><path d="M91,0C54.42,64.91,24.33,136.22,2,212.3V276C23.38,176,58,82.81,103.23,0Z" class="cls-3" transform="translate(-2)"/><path d="M91,0C54.42,64.91,24.33,136.22,2,212.3V276C23.38,176,58,82.81,103.23,0Z" class="cls-4" transform="translate(-2)"/><path d="M1442,205.56A1012.45,1012.45,0,0,0,1355,0h-14.89c45.71,83.67,80.58,177.89,101.91,279.16Z" class="cls-3" transform="translate(-2)"/><path d="M1442,205.56A1012.45,1012.45,0,0,0,1355,0h-14.89c45.71,83.67,80.58,177.89,101.91,279.16Z" class="cls-4" transform="translate(-2)"/><path d="M285.6,963.13h864.8c135.71,0,251.54-114.76,291.6-272.43V279.16C1420.67,177.89,1385.8,83.67,1340.09,0H103.23C58,82.81,23.38,176,2,276V718.55C48,861.71,158,963.13,285.6,963.13Z" class="cls-3" transform="translate(-2)"/><path d="M285.6,963.13h864.8c135.71,0,251.54-114.76,291.6-272.43V279.16C1420.67,177.89,1385.8,83.67,1340.09,0H103.23C58,82.81,23.38,176,2,276V718.55C48,861.71,158,963.13,285.6,963.13Z" class="cls-4" transform="translate(-2)"/></g><path d="M1262,1013c-43.65,16.9-78.59,12.11-125.35,12.11H326c-48.31,0-83.1.76-128-17.11" class="cls-5" transform="translate(-2)"/><g><g class="cls-6"><g><path d="M462.1,545.79q8.29,3.38,16.64,6.53c2.77,1,4.66,2.48,5.65,4.31a6.39,6.39,0,0,1,.42,5.58,6.19,6.19,0,0,1-3.19,3.49,7.9,7.9,0,0,1-3.86.62,9,9,0,0,1,3.75,4.11,6.57,6.57,0,0,1-.11,4.81,7.28,7.28,0,0,1-2.5,3.36,8.12,8.12,0,0,1-4,1.55,11.06,11.06,0,0,1-3.86-.43,43.43,43.43,0,0,1-4.3-1.2q-8-3-16-6.27Q456.4,559,462.1,545.79Zm4.64,14,3.94,1.53a5.23,5.23,0,0,0,3.21.46,2.54,2.54,0,0,0,1.59-1.61,2.34,2.34,0,0,0-.09-2.13,5,5,0,0,0-2.6-1.76l-4-1.53Zm-4.29,10.45,4.69,1.82a6,6,0,0,0,3.65.51,2.62,2.62,0,0,0,1.77-1.66,2.44,2.44,0,0,0-.2-2.27,6.21,6.21,0,0,0-3.07-2c-1.54-.59-3.09-1.18-4.63-1.79Q463.57,567.55,462.45,570.24Z" class="cls-7" transform="translate(-2)"/><path d="M493.39,557.7q4.47,1.59,8.95,3.12-3.66,10.18-7.28,20.39,7.21,2.46,14.44,4.77c-.74,2.23-1.48,4.47-2.21,6.7q-12-3.82-23.9-8Q488.34,571.16,493.39,557.7Z" class="cls-7" transform="translate(-2)"/><path d="M531.54,595.08Q526.25,593.57,521,592L518.07,596q-4.79-1.44-9.56-3,10.15-11.82,20-23.85,4.9,1.47,9.83,2.89,1.38,15.32,3.28,30.68-4.94-1.34-9.85-2.73Zm-.17-6.49c-.11-3.62-.21-7.22-.29-10.83q-3.12,4.46-6.28,8.89C527,587.31,529.18,588,531.37,588.59Z" class="cls-7" transform="translate(-2)"/><path d="M566.88,597.13c2.53,1.4,5.07,2.8,7.62,4.18a13.6,13.6,0,0,1-3.85,4.71,11.48,11.48,0,0,1-5.2,2.18,18.32,18.32,0,0,1-7-.55,21.2,21.2,0,0,1-7.78-3.37,12.49,12.49,0,0,1-4.18-6,14.89,14.89,0,0,1,.06-9c1.27-4.57,3.56-7.73,6.82-9.5s7.23-2.07,11.95-.9c3.69.91,6.42,2.31,8.2,4.23a13,13,0,0,1,3.19,7.64q-4.26-.07-8.53-.2a6.49,6.49,0,0,0-.43-2.08,5.31,5.31,0,0,0-1.5-2,6.29,6.29,0,0,0-7.73,0q-1.71,1.42-2.7,5.14c-.8,3.07-.85,5.31-.13,6.7a6.53,6.53,0,0,0,8.25,2.39A8.5,8.5,0,0,0,566.88,597.13Z" class="cls-7" transform="translate(-2)"/><path d="M583.35,583.54q4.54,1,9.09,2-1.14,5.29-2.27,10.59,6-4.29,11.81-8.67,6.06,1.17,12.13,2.25-6.36,4.37-12.87,8.62,4,9.84,8.27,19.66-5.84-1-11.68-2.16c-1.4-4.26-2.77-8.54-4.1-12.81-1.92,1.24-3.86,2.48-5.81,3.7l-1.44,6.84c-3.16-.65-6.31-1.33-9.46-2Q580.16,597.51,583.35,583.54Z" class="cls-7" transform="translate(-2)"/><path d="M629.92,592.29q4.58.71,9.16,1.36-1.12,7.7-2.24,15.4a22.83,22.83,0,0,1-2,7.24,8.71,8.71,0,0,1-4.38,3.75,13.36,13.36,0,0,1-7.49.64,17.67,17.67,0,0,1-7-2.33,8.82,8.82,0,0,1-3.36-4.05,12,12,0,0,1-.65-5.78q4.57.22,9.14.38a8.84,8.84,0,0,0-.1,2.84,3,3,0,0,0,.88,1.64,2.71,2.71,0,0,0,1.48.62,2.65,2.65,0,0,0,2.49-.73,6.94,6.94,0,0,0,1.31-3.56Q628.53,601,629.92,592.29Z" class="cls-7" transform="translate(-2)"/><path d="M659.67,620.34q-5.38-.58-10.75-1.26-1,2.25-2.09,4.5-4.86-.62-9.71-1.29,7.77-13.37,15.15-26.89,5,.63,10,1.17,4,14.85,8.4,29.65c-3.33-.32-6.66-.65-10-1C660.34,623.59,660,622,659.67,620.34ZM658.41,614q-1.1-5.29-2.14-10.61-2.25,4.92-4.53,9.83Q655.07,613.6,658.41,614Z" class="cls-7" transform="translate(-2)"/><path d="M694.23,616.35q4,1.44,8.11,2.83a13.54,13.54,0,0,1-2.94,5.29,11.17,11.17,0,0,1-4.68,3,17.81,17.81,0,0,1-6.91.64,20.59,20.59,0,0,1-8.11-2,12.5,12.5,0,0,1-5.07-5.23,15.11,15.11,0,0,1-1.47-8.91c.44-4.72,2.11-8.22,5-10.52s6.64-3.26,11.42-2.91q5.61.4,8.68,2.77a13.07,13.07,0,0,1,4.42,7q-4.15.64-8.32,1.24a6.55,6.55,0,0,0-.78-2,5.35,5.35,0,0,0-1.79-1.69,5.88,5.88,0,0,0-2.48-.72,5.59,5.59,0,0,0-5,2q-1.42,1.68-1.74,5.51c-.25,3.17.08,5.38,1,6.63a6.39,6.39,0,0,0,8.41,1A8.5,8.5,0,0,0,694.23,616.35Z" class="cls-7" transform="translate(-2)"/><path d="M707.9,600.18q4.59.21,9.18.38l-.39,10.81q5.09-5.24,10-10.53,6.12.13,12.22.17-5.46,5.37-11.07,10.66,5.56,9,11.41,18-5.88,0-11.76-.15-3.13-6-6.17-11.93-2.49,2.33-5,4.63l-.24,7q-4.78-.17-9.55-.39Q707.2,614.47,707.9,600.18Z" class="cls-7" transform="translate(-2)"/><path d="M756.26,600.9q7.65-.14,15.28-.43c3.32-.13,5.84.52,7.58,2A8.41,8.41,0,0,1,782,608.8a8.53,8.53,0,0,1-2.41,6.9c-1.76,1.72-4.55,2.66-8.35,2.8-1.72.07-3.43.13-5.15.18.11,3.54.21,7.08.32,10.62-3.19.1-6.39.17-9.59.23Q756.53,615.22,756.26,600.9Zm9.61,12,2.29-.07a6.1,6.1,0,0,0,3.76-1,2.82,2.82,0,0,0,1-2.31,3.14,3.14,0,0,0-1-2.25q-1-.9-3.57-.81l-2.64.09C765.74,608.62,765.8,610.75,765.87,612.88Z" class="cls-7" transform="translate(-2)"/><path d="M802.94,622.57c-3.59.29-7.18.54-10.77.77-.39,1.61-.79,3.21-1.2,4.82q-4.86.3-9.74.54,5.09-14.58,9.72-29.23,5-.33,10-.72,6.72,13.83,13.87,27.54-5,.47-10,.87Q803.89,624.87,802.94,622.57Zm-2.45-6q-2.07-5-4.1-10-1.26,5.25-2.58,10.5Q797.16,616.81,800.49,616.55Z" class="cls-7" transform="translate(-2)"/><path d="M808.52,598.11c3.39-.3,6.79-.62,10.18-1q3.49,4.49,7.07,9,2.49-5.15,4.89-10.29c3.38-.41,6.75-.83,10.12-1.28q-4.63,9-9.54,18l1.41,11.91q-4.77.55-9.54,1.06-.63-6-1.27-11.93Q815.06,605.89,808.52,598.11Z" class="cls-7" transform="translate(-2)"/><path d="M842.93,613.57c3-.57,5.91-1.15,8.86-1.76a6.1,6.1,0,0,0,1.64,2.92,5.18,5.18,0,0,0,4.42,1.1,4.89,4.89,0,0,0,3-1.36,2.62,2.62,0,0,0,.77-2.21,2.59,2.59,0,0,0-1.35-1.8c-.79-.47-2.47-.77-5.06-.91-4.23-.24-7.32-1-9.26-2.18a6.83,6.83,0,0,1-3.39-5.12,7.26,7.26,0,0,1,.77-4.31,8.89,8.89,0,0,1,3.55-3.61,20.13,20.13,0,0,1,7.11-2.18c3.78-.57,6.77-.36,9,.65a8.82,8.82,0,0,1,4.65,5.81c-2.87.65-5.75,1.29-8.63,1.9a4.46,4.46,0,0,0-1.9-2.55,5,5,0,0,0-3.19-.4,3.89,3.89,0,0,0-2.32,1,2,2,0,0,0-.58,1.69,1.57,1.57,0,0,0,.86,1.12,7.77,7.77,0,0,0,3.26.58,43.29,43.29,0,0,1,9.11,1.13,9.22,9.22,0,0,1,4.37,2.49,7.65,7.65,0,0,1,1.93,4,8.46,8.46,0,0,1-.76,5.28,10,10,0,0,1-4,4.22,19.58,19.58,0,0,1-7.22,2.35c-5.24.8-9,.37-11.27-1.21A10.71,10.71,0,0,1,842.93,613.57Z" class="cls-7" transform="translate(-2)"/><path d="M893.87,593.94c-2.7.09-5.4.18-8.09.24a9.5,9.5,0,0,1,2.63-6.14c1.58-1.61,4-2.76,7.38-3.47,3.84-.81,6.76-.74,8.79.24a6.5,6.5,0,0,1,3.77,4.54,5.56,5.56,0,0,1-.29,3.51,8.89,8.89,0,0,1-2.61,3.29,10.26,10.26,0,0,1,2.87.34,6.34,6.34,0,0,1,4.46,4.88,8.91,8.91,0,0,1-.3,5,9.11,9.11,0,0,1-3.23,4.35,16.82,16.82,0,0,1-6.64,2.71,19.25,19.25,0,0,1-6.79.46,9.86,9.86,0,0,1-4.49-1.84,11.91,11.91,0,0,1-3.25-3.89q4.11-1.33,8.21-2.72a6,6,0,0,0,2.23,2.94,4,4,0,0,0,2.86.35A3.85,3.85,0,0,0,904,607a4.83,4.83,0,0,0-1.29-6.08,4.14,4.14,0,0,0-3.16-.44,11.71,11.71,0,0,0-2.61,1c-.25-1.88-.51-3.76-.76-5.65a7.21,7.21,0,0,0,1.1-.13,4,4,0,0,0,2.51-1.55,3,3,0,0,0,.58-2.54,2.79,2.79,0,0,0-1.26-1.87,3.22,3.22,0,0,0-2.39-.29,3.48,3.48,0,0,0-2.19,1.33A5,5,0,0,0,893.87,593.94Z" class="cls-7" transform="translate(-2)"/><path d="M924.58,578.41q13.77-3.48,27.48-7.49,1,3.39,2.06,6.78-4.64,1.35-9.29,2.66,3,10.36,6,20.75c-3.14.87-6.27,1.72-9.41,2.56q-2.83-10.41-5.7-20.83c-3.1.83-6.21,1.63-9.32,2.42C925.77,583,925.17,580.69,924.58,578.41Z" class="cls-7" transform="translate(-2)"/><path d="M957.83,584.2c-1.37-4.48-1.1-8.36.78-11.66s5.17-5.65,9.89-7.15,9-1.56,12.44,0,6,4.47,7.57,8.82a16.09,16.09,0,0,1,1,8.38A12.37,12.37,0,0,1,986,589a19,19,0,0,1-7.84,4.43,21.75,21.75,0,0,1-9,1.17,12.83,12.83,0,0,1-6.88-3A15.17,15.17,0,0,1,957.83,584.2Zm9.2-2.74q1.32,4.14,3.59,5.42a6.24,6.24,0,0,0,5.18.36,6.15,6.15,0,0,0,4-3.25c.7-1.53.52-3.81-.51-6.85-.87-2.56-2.07-4.24-3.59-5.06a6.33,6.33,0,0,0-5.13-.31,5.94,5.94,0,0,0-3.82,3.19C966.06,576.51,966.14,578.67,967,581.46Z" class="cls-7" transform="translate(-2)"/><path d="M1035.46,572.25q-12.46,5-25,9.64a14.2,14.2,0,0,1,.22-7.19c.69-2.48,2.49-5.77,5.35-9.9a23.28,23.28,0,0,0,3.09-5.45,4.12,4.12,0,0,0,0-2.76,3,3,0,0,0-1.84-1.69,3.94,3.94,0,0,0-2.82.09,3.87,3.87,0,0,0-2.16,1.86,5.61,5.61,0,0,0,0,3.66q-4.18,1.25-8.37,2.44a12.05,12.05,0,0,1-.16-5.56,8.36,8.36,0,0,1,2.49-4,18.63,18.63,0,0,1,6-3.35,21.24,21.24,0,0,1,6.94-1.69,9,9,0,0,1,4.84,1.25,7.5,7.5,0,0,1,3.12,3.56,8.4,8.4,0,0,1,.41,5.25,21.16,21.16,0,0,1-3.69,7.13c-1.23,1.67-2,2.82-2.44,3.45s-.83,1.42-1.32,2.38q6.45-2.48,12.88-5.08Z" class="cls-7" transform="translate(-2)"/></g></g><g class="cls-6"><g><path d="M493.43,607.87c2.08.84,4.16,1.68,6.24,2.5a8.33,8.33,0,0,1,2.8,1.63,5.13,5.13,0,0,1,1.35,2.07,5.7,5.7,0,0,1,.26,2.44,9.53,9.53,0,0,1-.64,2.59,8.72,8.72,0,0,1-1.77,3,5.81,5.81,0,0,1-2.16,1.33,5.21,5.21,0,0,1-2.35.26,11.73,11.73,0,0,1-2.7-.66l-6.39-2.55Q490.74,614.16,493.43,607.87Zm3,4.54-2.87,6.89,1.05.42a5,5,0,0,0,2,.47,2.08,2.08,0,0,0,1.28-.6,5.93,5.93,0,0,0,1.21-2.07,4.28,4.28,0,0,0,.42-3,3.35,3.35,0,0,0-2.05-1.67Z" class="cls-7" transform="translate(-2)"/><path d="M508.17,613.64q5.66,2.15,11.32,4.18l-1,2.72c-2.38-.85-4.75-1.71-7.13-2.59l-.78,2c2.21.82,4.42,1.62,6.63,2.42-.32.87-.65,1.74-1,2.6q-3.35-1.18-6.67-2.43c-.32.84-.64,1.68-1,2.51q3.71,1.38,7.43,2.71l-1.08,2.89q-5.89-2.1-11.79-4.33Q505.65,620,508.17,613.64Z" class="cls-7" transform="translate(-2)"/><path d="M526.63,632.36c-1.63-.55-3.27-1.11-4.9-1.68l-1.45,1.88c-1.47-.52-2.95-1-4.42-1.56q5-5.46,9.9-11,2.31.81,4.63,1.59.3,7.3.74,14.63l-4.54-1.52C526.6,633.93,526.62,633.15,526.63,632.36Zm.09-3.08c0-1.72.07-3.43.11-5.15l-3.17,4.1Z" class="cls-7" transform="translate(-2)"/><path d="M536.9,623.78q2.13.71,4.26,1.38-1.63,4.88-3.24,9.75,3.38,1.08,6.75,2.13l-1,3.19c-3.71-1.14-7.43-2.33-11.13-3.54Q534.7,630.24,536.9,623.78Z" class="cls-7" transform="translate(-2)"/><path d="M549.73,627.85q5.71,1.74,11.44,3.38c-.27.93-.55,1.86-.83,2.79q-3.6-1-7.19-2.1c-.22.69-.43,1.38-.64,2.07l6.7,2c-.27.88-.53,1.77-.79,2.66q-3.37-1-6.73-2c-.26.86-.53,1.71-.79,2.57l7.5,2.19-.87,3q-6-1.71-11.9-3.52Q547.67,634.35,549.73,627.85Z" class="cls-7" transform="translate(-2)"/><path d="M559.94,645q1.89-6.54,3.8-13.08,3.56,1,7.13,2a11.81,11.81,0,0,1,3,1.13,3.36,3.36,0,0,1,1.37,1.65,3.66,3.66,0,0,1,.07,2.3,3.58,3.58,0,0,1-1,1.75,3.76,3.76,0,0,1-1.71.93,5.86,5.86,0,0,1-1.67.12,4.55,4.55,0,0,1,1,.78,4.33,4.33,0,0,1,.51.88,5,5,0,0,1,.39,1c.36,1.46.72,2.91,1.09,4.37l-4.94-1.31c-.42-1.54-.83-3.09-1.23-4.63a3.35,3.35,0,0,0-.5-1.23,2,2,0,0,0-1-.59l-.38-.11-1.5,5.32Zm6.59-6.57,1.82.49a6.14,6.14,0,0,0,1.19.13,1.19,1.19,0,0,0,.82-.22,1.32,1.32,0,0,0,.32-1.78,2.77,2.77,0,0,0-1.51-.77l-1.89-.52Z" class="cls-7" transform="translate(-2)"/><path d="M585.16,637.62l5.65,1.37c.07,2.85.15,5.71.25,8.56q2.06-3.76,4.09-7.55l5.66,1.28q-1.51,6.63-3,13.27l-3.6-.8,2.34-10.12q-2.53,4.75-5.11,9.48l-3.26-.76q-.16-5.37-.28-10.74-1.24,5-2.48,10.08l-3.59-.87Q583.48,644.22,585.16,637.62Z" class="cls-7" transform="translate(-2)"/><path d="M612.62,643.77l4.31.86-1.59,8a6.35,6.35,0,0,1-.83,2.16,4.77,4.77,0,0,1-1.6,1.59,5,5,0,0,1-2,.76,9.86,9.86,0,0,1-3.18-.18c-.69-.15-1.44-.35-2.24-.61a6.5,6.5,0,0,1-1.94-1,5.33,5.33,0,0,1-1.26-1.47,4.25,4.25,0,0,1-.59-1.73,7.27,7.27,0,0,1,.09-2.33q.87-4,1.75-7.92l4.3.91-1.74,8.12a2.27,2.27,0,0,0,.28,1.84,2.54,2.54,0,0,0,1.65,1,2.59,2.59,0,0,0,1.9-.24,2.32,2.32,0,0,0,1-1.59Q611.78,647.84,612.62,643.77Z" class="cls-7" transform="translate(-2)"/><path d="M617.28,654l4.21.54a3,3,0,0,0,.28,1.56,2.42,2.42,0,0,0,1.79,1.17,2.28,2.28,0,0,0,1.53-.16,1.27,1.27,0,0,0,.68-.87,1.21,1.21,0,0,0-.32-1,6,6,0,0,0-2.09-1.18,9.68,9.68,0,0,1-3.79-2.38,3.18,3.18,0,0,1-.73-2.81,3.47,3.47,0,0,1,1-1.83A4.35,4.35,0,0,1,622,645.9a9.56,9.56,0,0,1,3.53.11,7.53,7.53,0,0,1,3.92,1.68,4.17,4.17,0,0,1,1.14,3.33c-1.38-.15-2.76-.32-4.14-.49a2.11,2.11,0,0,0-.44-1.43,2.31,2.31,0,0,0-1.37-.67,1.82,1.82,0,0,0-1.19.09,1,1,0,0,0-.53.68.74.74,0,0,0,.21.63,3.74,3.74,0,0,0,1.37.76,19.57,19.57,0,0,1,3.87,1.91,4.29,4.29,0,0,1,1.54,1.8,3.67,3.67,0,0,1,.22,2.08,4.1,4.1,0,0,1-1.17,2.24,4.7,4.7,0,0,1-2.41,1.28,9,9,0,0,1-3.54,0q-3.64-.66-4.79-2.24A5.08,5.08,0,0,1,617.28,654Z" class="cls-7" transform="translate(-2)"/><path d="M632.9,647.54q6.57,1.11,13.15,2.09l-.51,3.32-4.43-.67q-.81,5.06-1.6,10.12l-4.42-.71c.56-3.36,1.11-6.73,1.67-10.1l-4.43-.74Z" class="cls-7" transform="translate(-2)"/><path d="M654.59,650.85q3.21.43,6.44.84a8.29,8.29,0,0,1,3,.87,5.14,5.14,0,0,1,1.77,1.66,6,6,0,0,1,.86,2.3,9.82,9.82,0,0,1,0,2.66,8.68,8.68,0,0,1-.91,3.29,5.41,5.41,0,0,1-1.69,1.83,4.68,4.68,0,0,1-2.12.84,10.56,10.56,0,0,1-2.68,0q-3.28-.4-6.57-.86Q653.66,657.59,654.59,650.85Zm3.93,3.62-1,7.37,1.08.14a4.82,4.82,0,0,0,2,0,2.07,2.07,0,0,0,1-.9,6,6,0,0,0,.62-2.3,4.44,4.44,0,0,0-.37-3,3.21,3.21,0,0,0-2.32-1.1Z" class="cls-7" transform="translate(-2)"/><path d="M668.3,666.25l1.53-13.52q3.61.4,7.23.77a11,11,0,0,1,3,.63,3.31,3.31,0,0,1,1.6,1.4,4,4,0,0,1-.24,4.15,3.92,3.92,0,0,1-1.51,1.2,5.14,5.14,0,0,1-1.59.38,4.72,4.72,0,0,1,1.1.61,4.59,4.59,0,0,1,.63.78,5.77,5.77,0,0,1,.54.9c.58,1.38,1.18,2.75,1.77,4.12l-5-.47c-.66-1.46-1.31-2.91-1.95-4.37a3,3,0,0,0-.69-1.12,1.83,1.83,0,0,0-1-.43l-.39,0c-.19,1.83-.39,3.66-.58,5.49Zm5.3-7.57,1.85.19a6.12,6.12,0,0,0,1.17-.06,1.21,1.21,0,0,0,.76-.36,1.33,1.33,0,0,0,0-1.8,2.69,2.69,0,0,0-1.59-.52l-1.92-.2C673.8,656.85,673.7,657.77,673.6,658.68Z" class="cls-7" transform="translate(-2)"/><path d="M692.81,666.28l-5-.4c-.29.73-.58,1.46-.88,2.18q-2.26-.18-4.53-.39,3.32-6.52,6.52-13.09l4.74.37q2.11,7,4.36,13.95l-4.64-.33C693.18,667.81,693,667,692.81,666.28Zm-.69-3c-.4-1.67-.79-3.33-1.19-5q-1,2.38-1.94,4.75Z" class="cls-7" transform="translate(-2)"/><path d="M699,655.33l4.13.26q.51,3.85,1,7.69c.88-2.49,1.76-5,2.62-7.48l4.11.22c.61,2.56,1.22,5.13,1.84,7.69q.93-3.76,1.83-7.53l4.11.17q-1.8,6.74-3.67,13.46l-4.35-.19q-1-4.33-2.07-8.68-1.47,4.21-3,8.42l-4.35-.25Q700.11,662.22,699,655.33Z" class="cls-7" transform="translate(-2)"/><path d="M725.66,656.56c4.41.12,8.82.18,13.22.21,0,1.12,0,2.24,0,3.36l-4.46,0-.12,10.24-4.44-.07c.06-3.41.13-6.83.19-10.24l-4.45-.1C725.61,658.8,725.64,657.68,725.66,656.56Z" class="cls-7" transform="translate(-2)"/><path d="M739.6,663.58a6.88,6.88,0,0,1,1.95-5.18,7.49,7.49,0,0,1,5.34-1.87,7.67,7.67,0,0,1,5.44,1.76,6.77,6.77,0,0,1,2,5.08,8,8,0,0,1-.77,3.92,5.85,5.85,0,0,1-2.41,2.42,8.34,8.34,0,0,1-4,.88,9.36,9.36,0,0,1-4-.71,5.86,5.86,0,0,1-2.57-2.32A7.32,7.32,0,0,1,739.6,663.58Zm4.39,0a4.41,4.41,0,0,0,.82,2.95,2.73,2.73,0,0,0,2.19.89,2.78,2.78,0,0,0,2.19-.9,4.83,4.83,0,0,0,.75-3.17,4.16,4.16,0,0,0-.84-2.8,2.86,2.86,0,0,0-2.19-.87,2.73,2.73,0,0,0-2.12.91A4.51,4.51,0,0,0,744,663.61Z" class="cls-7" transform="translate(-2)"/><path d="M771.32,655.91q.31,6.9.61,13.82l-4,.16c-.12-3-.23-6-.35-9a13.4,13.4,0,0,1-1.83,1.21,15.38,15.38,0,0,1-2.24.91c0-1-.07-2.07-.1-3.1a9.65,9.65,0,0,0,3.06-1.6,6.27,6.27,0,0,0,1.65-2.22Z" class="cls-7" transform="translate(-2)"/><path d="M787.1,658.32l-3.88.72a2,2,0,0,0-.58-1.08,1.31,1.31,0,0,0-.91-.27,1.64,1.64,0,0,0-1.43,1,8.21,8.21,0,0,0-.4,2.89,4.94,4.94,0,0,1,1.39-1.1,4.22,4.22,0,0,1,1.7-.43,4.41,4.41,0,0,1,3.29,1.09,4.48,4.48,0,0,1,1.54,3.19,4.73,4.73,0,0,1-.5,2.5,4.28,4.28,0,0,1-1.75,1.8,6.69,6.69,0,0,1-3,.76,7.3,7.3,0,0,1-3.49-.49,5,5,0,0,1-2.2-2.11,9,9,0,0,1-1-4q-.18-3.67,1.33-5.47a5.84,5.84,0,0,1,4.35-2,7.56,7.56,0,0,1,2.67.21,4.14,4.14,0,0,1,1.69,1A5,5,0,0,1,787.1,658.32Zm-6.88,6.5a2.41,2.41,0,0,0,.68,1.69,1.87,1.87,0,0,0,1.48.54,1.7,1.7,0,0,0,1.27-.64,2.37,2.37,0,0,0,.42-1.72,2.53,2.53,0,0,0-.66-1.71,1.7,1.7,0,0,0-1.38-.52,1.83,1.83,0,0,0-1.35.66A2.33,2.33,0,0,0,780.22,664.82Z" class="cls-7" transform="translate(-2)"/><path d="M805.59,665.13l-5,.46c-.16.76-.33,1.53-.5,2.3l-4.53.37q2.16-7,4.19-14l4.74-.43q3.28,6.51,6.69,13l-4.64.47Zm-1.2-2.84c-.67-1.58-1.35-3.15-2-4.72q-.54,2.5-1.1,5Z" class="cls-7" transform="translate(-2)"/><path d="M811.15,653.16l4.05-.44q3.07,3.43,6.2,6.85c-.31-2.49-.61-5-.92-7.47l4.09-.5q.87,6.75,1.73,13.49l-4.17.52q-3.14-3.39-6.21-6.8l.84,7.42c-1.39.15-2.77.31-4.16.45Q811.88,659.92,811.15,653.16Z" class="cls-7" transform="translate(-2)"/><path d="M827.51,651.22c2.14-.28,4.29-.57,6.43-.87a8.12,8.12,0,0,1,3.15,0,5,5,0,0,1,2.15,1.14,5.7,5.7,0,0,1,1.44,2,9.44,9.44,0,0,1,.75,2.55,8.57,8.57,0,0,1,0,3.42,5.49,5.49,0,0,1-1.14,2.21,4.92,4.92,0,0,1-1.83,1.36,10.87,10.87,0,0,1-2.58.74l-6.57.9Q828.4,658,827.51,651.22Zm4.76,2.47c.34,2.45.68,4.91,1,7.36l1.07-.15a4.87,4.87,0,0,0,1.93-.57,2,2,0,0,0,.76-1.14,6,6,0,0,0,0-2.38,4.43,4.43,0,0,0-1.16-2.82,3.22,3.22,0,0,0-2.54-.45Z" class="cls-7" transform="translate(-2)"/><path d="M849.94,657.11l4.13-.94a3,3,0,0,0,.8,1.37A2.48,2.48,0,0,0,857,658a2.28,2.28,0,0,0,1.37-.67,1.24,1.24,0,0,0,.34-1.06,1.2,1.2,0,0,0-.65-.84,5.87,5.87,0,0,0-2.38-.39,9.72,9.72,0,0,1-4.38-.93,3.24,3.24,0,0,1-1.67-2.39,3.37,3.37,0,0,1,.3-2,4.13,4.13,0,0,1,1.63-1.76,9.21,9.21,0,0,1,3.35-1.12,7.46,7.46,0,0,1,4.26.23,4.18,4.18,0,0,1,2.25,2.73l-4.06,1a2.1,2.1,0,0,0-.92-1.19,2.33,2.33,0,0,0-1.52-.16,1.88,1.88,0,0,0-1.08.5.91.91,0,0,0-.25.81.73.73,0,0,0,.41.53,3.8,3.8,0,0,0,1.55.24,20,20,0,0,1,4.3.46,4.39,4.39,0,0,1,2.08,1.15,3.68,3.68,0,0,1,.93,1.88,4.12,4.12,0,0,1-.31,2.51,4.77,4.77,0,0,1-1.82,2,9,9,0,0,1-3.34,1.17c-2.43.42-4.18.26-5.27-.46A5.12,5.12,0,0,1,849.94,657.11Z" class="cls-7" transform="translate(-2)"/><path d="M862.32,645.71q6.55-1.23,13.11-2.58c.23,1.1.47,2.19.7,3.29l-4.42.9,2,10-4.4.86-2-10.05L863,649Z" class="cls-7" transform="translate(-2)"/><path d="M887.14,652.24l-5,1.08c-.08.78-.15,1.57-.22,2.35l-4.5.94q1.29-7.22,2.45-14.42l4.7-1q4.13,6,8.35,12.06l-4.6,1Zm-1.55-2.67L883,645.14l-.48,5.11Z" class="cls-7" transform="translate(-2)"/><path d="M891.22,639.66l4-.95q3.51,3,7.09,6l-1.86-7.3,4-1q1.72,6.6,3.43,13.18l-4.13,1q-3.57-3-7.09-6c.59,2.42,1.19,4.84,1.77,7.26l-4.12,1Q892.81,646.29,891.22,639.66Z" class="cls-7" transform="translate(-2)"/><path d="M907.42,635.68q3.2-.82,6.37-1.68a8.4,8.4,0,0,1,3.18-.35,5.25,5.25,0,0,1,2.31.86,5.72,5.72,0,0,1,1.7,1.79,9.47,9.47,0,0,1,1.08,2.44,8.57,8.57,0,0,1,.42,3.39,5.52,5.52,0,0,1-.87,2.34,4.82,4.82,0,0,1-1.67,1.58,11.1,11.1,0,0,1-2.51,1.07l-6.5,1.72C909.76,644.45,908.6,640.06,907.42,635.68Zm5.11,1.85c.65,2.39,1.31,4.78,2,7.17l1.07-.28a4.82,4.82,0,0,0,1.86-.81,2,2,0,0,0,.63-1.23,6,6,0,0,0-.31-2.36,4.44,4.44,0,0,0-1.53-2.66,3.32,3.32,0,0,0-2.61-.12Z" class="cls-7" transform="translate(-2)"/><path d="M930.32,636.42a6.71,6.71,0,0,1,.38-5.52,7.63,7.63,0,0,1,4.69-3.36,7.94,7.94,0,0,1,5.87.09,6.73,6.73,0,0,1,3.48,4.26,7.86,7.86,0,0,1,.4,4,5.93,5.93,0,0,1-1.66,3,8.89,8.89,0,0,1-3.66,2,9.86,9.86,0,0,1-4.17.49,6,6,0,0,1-3.21-1.46A7.28,7.28,0,0,1,930.32,636.42Zm4.32-1.26a4.33,4.33,0,0,0,1.67,2.59,2.91,2.91,0,0,0,2.42.21,2.87,2.87,0,0,0,1.89-1.51,4.7,4.7,0,0,0-.21-3.25,4.07,4.07,0,0,0-1.65-2.44,2.94,2.94,0,0,0-2.41-.18,2.75,2.75,0,0,0-1.81,1.49A4.3,4.3,0,0,0,934.64,635.16Z" class="cls-7" transform="translate(-2)"/><path d="M945,624.78l4-1.3q3.83,2.71,7.69,5.39l-2.51-7.11,4-1.37q2.31,6.42,4.61,12.83l-4.09,1.4q-3.86-2.64-7.68-5.33,1.21,3.54,2.42,7.08c-1.36.45-2.73.9-4.09,1.33Q947.13,631.23,945,624.78Z" class="cls-7" transform="translate(-2)"/><path d="M975.22,614q2.55,6.46,5.08,12.92c-1.31.5-2.62,1-3.93,1.46l-3.27-8.48a12.25,12.25,0,0,1-1.41,1.73,15,15,0,0,1-1.91,1.59c-.37-1-.74-1.94-1.1-2.91a9.9,9.9,0,0,0,2.49-2.5,5.94,5.94,0,0,0,.9-2.64Z" class="cls-7" transform="translate(-2)"/><path d="M979.49,612.6c3.69-1.42,7.38-2.86,11.06-4.35.33.79.67,1.57,1,2.36a14.36,14.36,0,0,0-1.32,3.57,15.85,15.85,0,0,0-.29,4.54,18.49,18.49,0,0,0,.85,4.14c-1.28.5-2.57,1-3.86,1.5a20.51,20.51,0,0,1-.68-5.74,21,21,0,0,1,1.21-5.68q-3.37,1.34-6.77,2.63Z" class="cls-7" transform="translate(-2)"/></g></g></g><g><path d="M326.94,868.53Q270,851.06,214.3,828.67c-7.24-2.91-11.07-10.34-8.53-16.44l55.43-134c2.54-6.1,9.79-8.93,16.14-6.38q49,19.71,99.2,35.1A12.34,12.34,0,0,1,385,722.05q-20.58,69.53-41.17,139C341.94,867.41,334.34,870.81,326.94,868.53Z" class="cls-8" transform="translate(-2)"/><path d="M557.59,918.75q-58.53-7.69-116.46-20.31c-7.53-1.64-12.46-8.31-11-14.74Q446.28,813,462.41,742.33a12.3,12.3,0,0,1,14.68-9q51,11.1,102.56,17.89a12.27,12.27,0,0,1,10.72,13.45q-8.76,72-17.51,143.94C572.07,915.14,565.2,919.76,557.59,918.75Z" class="cls-8" transform="translate(-2)"/><path d="M807.29,929.38q-58.87,2.7-117.81.5c-7.65-.29-13.65-6-13.32-12.58L683,772.46A12.27,12.27,0,0,1,695.8,761q51.86,1.93,103.74-.44a12.27,12.27,0,0,1,12.9,11.36l8.07,144.78C820.89,923.28,814.94,929,807.29,929.38Z" class="cls-8" transform="translate(-2)"/><path d="M1039.49,899.36Q981.58,911.8,923,919.31c-7.61,1-14.47-3.65-15.24-10.21l-17.07-144a12.28,12.28,0,0,1,10.75-13.42Q953,745.06,1004,734.12a12.31,12.31,0,0,1,14.65,9.07l31.83,141.46C1052,891.09,1047,897.75,1039.49,899.36Z" class="cls-8" transform="translate(-2)"/><path d="M1270.57,828.67q-55.66,22.38-112.64,39.86c-7.4,2.28-15-1.12-16.86-7.45q-20.6-69.51-41.18-139a12.35,12.35,0,0,1,8.44-15.08q50.13-15.39,99.2-35.1c6.35-2.55,13.6.28,16.14,6.38q27.7,67,55.43,134C1281.63,818.33,1277.81,825.76,1270.57,828.67Z" class="cls-8" transform="translate(-2)"/></g></svg>