<svg id="Layer_1" data-name="Layer 1" xmlns="http://www.w3.org/2000/svg" xmlns:xlink="http://www.w3.org/1999/xlink" width="1440" height="1315" viewBox="0 0 1440 1315">
  <defs>
    <style>
      .cls-1, .cls-5, .cls-8 {
        fill: none;
      }

      .cls-2 {
        fill: #42210b;
      }

      .cls-3 {
        fill: #c69c6d;
      }

      .cls-4 {
        fill: url(#radial-gradient);
      }

      .cls-5 {
        stroke: #919191;
        stroke-linecap: round;
        stroke-width: 10px;
        opacity: 0.3;
      }

      .cls-5, .cls-8 {
        stroke-miterlimit: 10;
      }

      .cls-6 {
        opacity: 0.6;
      }

      .cls-7 {
        fill: #fff;
      }

      .cls-8 {
        stroke: #fff;
      }
    </style>
    <radialGradient id="radial-gradient" cx="718" cy="501.75" r="624.36" gradientTransform="translate(0 -301.78) scale(1 1.28)" gradientUnits="userSpaceOnUse">
      <stop offset="0" stop-color="#22b573"/>
      <stop offset="1" stop-color="#2e963d"/>
    </radialGradient>
  </defs>
  <title>bg-table</title>
  <g>
    <path class="cls-1" d="M1287.52,1015a317.24,317.24,0,0,1-140.86,32.89H312.45a320.42,320.42,0,0,1-145.32-35.07C97.27,977.45,39.25,923.07,2,851v464H1442V861.86C1406.81,930.08,1353.48,982.51,1287.52,1015Z" transform="translate(-2)"/>
    <path class="cls-2" d="M167.13,1012.82a320.42,320.42,0,0,0,145.32,35.07h834.21A317.24,317.24,0,0,0,1287.52,1015c66-32.49,119.29-84.92,154.48-153.14V786c-31.47,92.13-92.16,161.85-171.78,201.43a306,306,0,0,1-136.88,32.25H322.72c-48.3,0-96.26-11.44-141.2-34.39C100.19,943.71,35.37,875.39,2,782.62V851C39.25,923.07,97.27,977.45,167.13,1012.82Z" transform="translate(-2)"/>
    <path class="cls-2" d="M181.52,985.25c44.94,23,92.9,34.39,141.2,34.39h810.62a306,306,0,0,0,136.88-32.25C1349.84,947.81,1410.53,878.09,1442,786V750c-48.64,135.34-155.44,229.87-278.6,229.87H276.6c-28.68-.2-81.64-5.53-138.84-43-11.49-7.52-45.42-30.9-77.7-72.7C33.75,830.09,15.16,792.35,2,755.61v27C35.37,875.39,100.19,943.71,181.52,985.25Z" transform="translate(-2)"/>
    <path class="cls-3" d="M137.76,936.87c57.2,37.43,110.16,42.76,138.84,43h886.8c123.16,0,230-94.53,278.6-229.87V690.7c-40.06,157.67-155.89,272.43-291.6,272.43H285.6C158,963.13,48,861.71,2,718.55v37.06c13.16,36.74,31.75,74.48,58.06,108.56C92.34,906,126.27,929.35,137.76,936.87Z" transform="translate(-2)"/>
    <path class="cls-3" d="M1442,0h-87a1012.45,1012.45,0,0,1,87,205.56Z" transform="translate(-2)"/>
    <path class="cls-4" d="M1442,0h-87a1012.45,1012.45,0,0,1,87,205.56Z" transform="translate(-2)"/>
    <path class="cls-3" d="M2,0V212.3C24.33,136.22,54.42,64.91,91,0Z" transform="translate(-2)"/>
    <path class="cls-4" d="M2,0V212.3C24.33,136.22,54.42,64.91,91,0Z" transform="translate(-2)"/>
    <path class="cls-3" d="M91,0C54.42,64.91,24.33,136.22,2,212.3V276C23.38,176,58,82.81,103.23,0Z" transform="translate(-2)"/>
    <path class="cls-4" d="M91,0C54.42,64.91,24.33,136.22,2,212.3V276C23.38,176,58,82.81,103.23,0Z" transform="translate(-2)"/>
    <path class="cls-3" d="M1442,205.56A1012.45,1012.45,0,0,0,1355,0h-14.89c45.71,83.67,80.58,177.89,101.91,279.16Z" transform="translate(-2)"/>
    <path class="cls-4" d="M1442,205.56A1012.45,1012.45,0,0,0,1355,0h-14.89c45.71,83.67,80.58,177.89,101.91,279.16Z" transform="translate(-2)"/>
    <path class="cls-3" d="M285.6,963.13h864.8c135.71,0,251.54-114.76,291.6-272.43V279.16C1420.67,177.89,1385.8,83.67,1340.09,0H103.23C58,82.81,23.38,176,2,276V718.55C48,861.71,158,963.13,285.6,963.13Z" transform="translate(-2)"/>
    <path class="cls-4" d="M285.6,963.13h864.8c135.71,0,251.54-114.76,291.6-272.43V279.16C1420.67,177.89,1385.8,83.67,1340.09,0H103.23C58,82.81,23.38,176,2,276V718.55C48,861.71,158,963.13,285.6,963.13Z" transform="translate(-2)"/>
  </g>
  <path class="cls-5" d="M1262,1013c-43.65,16.9-78.59,12.11-125.35,12.11H326c-48.31,0-83.1.76-128-17.11" transform="translate(-2)"/>
  <g>
    <g class="cls-6">
      <g>
        <path class="cls-7" d="M420.23,476.91q10,4,20,7.83c3.33,1.26,5.59,3,6.79,5.18a7.63,7.63,0,0,1,.5,6.69,7.44,7.44,0,0,1-3.83,4.19,9.41,9.41,0,0,1-4.63.74,10.69,10.69,0,0,1,4.5,4.94,7.82,7.82,0,0,1-.13,5.76,8.73,8.73,0,0,1-3,4,9.82,9.82,0,0,1-4.76,1.86,13.68,13.68,0,0,1-4.64-.51c-2.62-.65-4.34-1.14-5.16-1.45q-9.6-3.64-19.18-7.52Q413.39,492.78,420.23,476.91Zm5.57,16.8,4.72,1.83a6.22,6.22,0,0,0,3.85.55,3,3,0,0,0,1.92-1.93,2.8,2.8,0,0,0-.12-2.56,6,6,0,0,0-3.12-2.1l-4.75-1.84C427.47,489.67,426.63,491.69,425.8,493.71Zm-5.15,12.54c1.88.73,3.75,1.46,5.62,2.17a7.18,7.18,0,0,0,4.38.63,3.22,3.22,0,0,0,2.13-2,2.89,2.89,0,0,0-.24-2.72q-.81-1.31-3.68-2.4l-5.56-2.15C422.42,501.94,421.53,504.09,420.65,506.25Z" transform="translate(-2)"/>
        <path class="cls-7" d="M457.78,491.2q5.36,1.91,10.74,3.74-4.39,12.22-8.74,24.47,8.66,2.94,17.33,5.72c-.89,2.68-1.77,5.37-2.66,8q-14.37-4.59-28.68-9.67Q451.73,507.34,457.78,491.2Z" transform="translate(-2)"/>
        <path class="cls-7" d="M503.55,536.06q-6.35-1.83-12.7-3.74l-3.46,4.89q-5.75-1.74-11.47-3.57Q488.1,519.47,499.86,505q5.89,1.77,11.8,3.47,1.65,18.38,3.93,36.81-5.91-1.59-11.81-3.27Q503.66,539,503.55,536.06Zm-.19-7.8q-.21-6.5-.36-13-3.74,5.34-7.53,10.67Q499.42,527.13,503.36,528.26Z" transform="translate(-2)"/>
        <path class="cls-7" d="M546,538.51q4.54,2.54,9.14,5a16.4,16.4,0,0,1-4.62,5.65,13.66,13.66,0,0,1-6.24,2.61,21.7,21.7,0,0,1-8.44-.66,25.56,25.56,0,0,1-9.34-4,15,15,0,0,1-5-7.24c-1.1-3.12-1.06-6.74.08-10.85,1.52-5.49,4.27-9.28,8.18-11.41s8.67-2.47,14.33-1.07c4.44,1.1,7.71,2.77,9.84,5.07a15.61,15.61,0,0,1,3.84,9.17q-5.12-.09-10.24-.24A7.68,7.68,0,0,0,547,528a6.39,6.39,0,0,0-1.8-2.37,7,7,0,0,0-2.82-1.37,6.93,6.93,0,0,0-6.46,1.38c-1.36,1.14-2.45,3.19-3.23,6.17-1,3.69-1,6.37-.16,8a6.66,6.66,0,0,0,4.62,3.34,6.75,6.75,0,0,0,5.28-.47A10.33,10.33,0,0,0,546,538.51Z" transform="translate(-2)"/>
        <path class="cls-7" d="M565.72,522.2q5.46,1.21,10.92,2.34-1.36,6.36-2.72,12.71,7.16-5.14,14.17-10.4,7.26,1.41,14.55,2.7-7.64,5.24-15.44,10.34,4.77,11.82,9.92,23.59c-4.67-.82-9.34-1.69-14-2.58q-2.54-7.68-4.92-15.38c-2.32,1.49-4.64,3-7,4.44-.58,2.74-1.15,5.48-1.73,8.21q-5.68-1.18-11.35-2.43Q561.9,539,565.72,522.2Z" transform="translate(-2)"/>
        <path class="cls-7" d="M621.61,532.7q5.49.85,11,1.63-1.35,9.24-2.68,18.48a27.19,27.19,0,0,1-2.4,8.7,10.34,10.34,0,0,1-5.24,4.49,16.18,16.18,0,0,1-9,.78,21.23,21.23,0,0,1-8.42-2.8,10.57,10.57,0,0,1-4-4.86,14.39,14.39,0,0,1-.79-6.93c3.67.17,7.32.32,11,.45a10.74,10.74,0,0,0-.13,3.4,3.7,3.7,0,0,0,1.06,2,3.23,3.23,0,0,0,1.77.73,3.16,3.16,0,0,0,3-.87,8.18,8.18,0,0,0,1.58-4.27Q619.94,543.16,621.61,532.7Z" transform="translate(-2)"/>
        <path class="cls-7" d="M657.31,566.37q-6.45-.72-12.89-1.51l-2.51,5.4q-5.83-.74-11.66-1.55,9.33-16.05,18.18-32.27,6,.75,12,1.41,4.76,17.8,10.08,35.57-6-.57-12-1.21Q657.92,569.29,657.31,566.37Zm-1.52-7.65q-1.31-6.36-2.56-12.73-2.68,5.91-5.44,11.79Q651.8,558.28,655.79,558.72Z" transform="translate(-2)"/>
        <path class="cls-7" d="M698.79,561.57q4.85,1.73,9.73,3.4a16.46,16.46,0,0,1-3.53,6.35,13.4,13.4,0,0,1-5.62,3.63,21.22,21.22,0,0,1-8.29.78,25,25,0,0,1-9.74-2.39,15,15,0,0,1-6.08-6.28c-1.59-2.88-2.17-6.45-1.77-10.7.54-5.66,2.55-9.85,6-12.61s8-3.91,13.71-3.5c4.48.33,8,1.43,10.42,3.33a15.65,15.65,0,0,1,5.29,8.38c-3.32.52-6.64,1-10,1.49a7.66,7.66,0,0,0-.93-2.36,6.29,6.29,0,0,0-2.15-2,6.87,6.87,0,0,0-3-.87,6.71,6.71,0,0,0-6,2.45c-1.13,1.35-1.83,3.56-2.08,6.62q-.46,5.7,1.21,8a7.67,7.67,0,0,0,10.09,1.14A10.16,10.16,0,0,0,698.79,561.57Z" transform="translate(-2)"/>
        <path class="cls-7" d="M715.18,542.17c3.67.18,7.35.33,11,.46q-.23,6.48-.46,13,6.09-6.27,12-12.64,7.34.16,14.66.21-6.54,6.44-13.29,12.79,6.69,10.83,13.7,21.57-7.05,0-14.11-.18-3.76-7.14-7.41-14.32-3,2.79-6,5.56L725,577q-5.72-.21-11.45-.48Q714.35,559.33,715.18,542.17Z" transform="translate(-2)"/>
        <path class="cls-7" d="M773.23,543q9.15-.16,18.32-.52c4-.15,7,.62,9.1,2.35s3.23,4.27,3.4,7.64a10.21,10.21,0,0,1-2.88,8.29c-2.12,2.06-5.47,3.19-10,3.36q-3.09.12-6.19.21l.39,12.75c-3.83.11-7.67.2-11.5.27Q773.54,560.22,773.23,543Zm11.52,14.37,2.75-.08c2.16-.08,3.66-.49,4.51-1.23a3.39,3.39,0,0,0,1.2-2.78,3.77,3.77,0,0,0-1.24-2.7c-.79-.72-2.21-1-4.29-1l-3.17.1Z" transform="translate(-2)"/>
        <path class="cls-7" d="M829.23,569q-6.45.51-12.91.93l-1.44,5.77q-5.85.38-11.7.66,6.12-17.5,11.67-35.08,6-.39,12-.87,8.07,16.6,16.64,33.06-6,.56-12,1Q830.38,571.81,829.23,569Zm-2.93-7.22q-2.49-6-4.92-12-1.53,6.3-3.1,12.59Q822.3,562.12,826.3,561.82Z" transform="translate(-2)"/>
        <path class="cls-7" d="M835.93,539.69q6.11-.54,12.22-1.17,4.2,5.4,8.48,10.75,3-6.16,5.88-12.35,6.06-.72,12.13-1.53-5.55,10.82-11.45,21.56.85,7.15,1.7,14.3-5.73.66-11.45,1.27-.77-7.15-1.52-14.31Q843.78,549,835.93,539.69Z" transform="translate(-2)"/>
        <path class="cls-7" d="M877.22,558.25q5.32-1,10.64-2.12a7.42,7.42,0,0,0,2,3.51,6.24,6.24,0,0,0,5.31,1.31,5.8,5.8,0,0,0,3.57-1.63,2.93,2.93,0,0,0-.7-4.81c-.93-.57-3-.92-6.06-1.09-5.08-.3-8.79-1.19-11.12-2.62a8.13,8.13,0,0,1-4.06-6.14,8.76,8.76,0,0,1,.91-5.17,10.66,10.66,0,0,1,4.27-4.33,23.82,23.82,0,0,1,8.53-2.62c4.54-.69,8.12-.44,10.78.78s4.52,3.54,5.58,7c-3.44.78-6.9,1.54-10.35,2.28a5.42,5.42,0,0,0-2.28-3.06,6,6,0,0,0-3.84-.48,4.65,4.65,0,0,0-2.78,1.21,2.37,2.37,0,0,0-.7,2,1.92,1.92,0,0,0,1,1.34,9.32,9.32,0,0,0,3.92.7,52.78,52.78,0,0,1,10.93,1.35,11.15,11.15,0,0,1,5.25,3,9.23,9.23,0,0,1,2.31,4.76,10.22,10.22,0,0,1-.91,6.34,12,12,0,0,1-4.77,5.07,23.44,23.44,0,0,1-8.66,2.82c-6.28,1-10.8.44-13.52-1.45A12.84,12.84,0,0,1,877.22,558.25Z" transform="translate(-2)"/>
        <path class="cls-7" d="M938.35,534.68c-3.24.12-6.48.21-9.71.29a11.32,11.32,0,0,1,3.16-7.36q2.84-2.91,8.85-4.16c4.61-1,8.12-.9,10.56.28a7.83,7.83,0,0,1,4.52,5.45,6.68,6.68,0,0,1-.35,4.21,10.73,10.73,0,0,1-3.14,4,12.33,12.33,0,0,1,3.45.41,7.6,7.6,0,0,1,5.35,5.86,10.6,10.6,0,0,1-.36,6,11,11,0,0,1-3.87,5.22,20.16,20.16,0,0,1-8,3.25,23.61,23.61,0,0,1-8.13.56,12,12,0,0,1-5.4-2.21,14.47,14.47,0,0,1-3.9-4.68q4.94-1.61,9.85-3.26a7.24,7.24,0,0,0,2.68,3.53,4.73,4.73,0,0,0,3.43.42,4.59,4.59,0,0,0,3.1-2.1,5.79,5.79,0,0,0-1.55-7.29,4.88,4.88,0,0,0-3.79-.53,13.49,13.49,0,0,0-3.14,1.23l-.9-6.79a9.75,9.75,0,0,0,1.32-.15,4.79,4.79,0,0,0,3-1.86,3.65,3.65,0,0,0,.69-3,3.29,3.29,0,0,0-1.51-2.24,3.81,3.81,0,0,0-2.87-.35,4.12,4.12,0,0,0-2.63,1.59A6,6,0,0,0,938.35,534.68Z" transform="translate(-2)"/>
        <path class="cls-7" d="M975.2,516.05q16.53-4.17,33-9l2.49,8.13q-5.58,1.63-11.16,3.19,3.6,12.45,7.17,24.91-5.64,1.56-11.29,3.07-3.4-12.5-6.84-25-5.6,1.49-11.19,2.9C976.63,521.53,975.92,518.79,975.2,516.05Z" transform="translate(-2)"/>
        <path class="cls-7" d="M1015.1,523c-1.64-5.37-1.31-10,.95-14s6.19-6.79,11.85-8.59,10.77-1.87,14.94,0,7.21,5.36,9.07,10.59a19.16,19.16,0,0,1,1.2,10,14.76,14.76,0,0,1-4.18,7.74,22.64,22.64,0,0,1-9.41,5.31,25.84,25.84,0,0,1-10.74,1.41,15.3,15.3,0,0,1-8.26-3.64A18.1,18.1,0,0,1,1015.1,523Zm11-3.28c1.06,3.31,2.49,5.48,4.31,6.5a7.51,7.51,0,0,0,6.22.44,7.42,7.42,0,0,0,4.84-3.9q1.24-2.76-.62-8.23c-1.05-3.06-2.49-5.09-4.31-6.07a7.63,7.63,0,0,0-6.16-.37,7.13,7.13,0,0,0-4.58,3.83Q1024.54,514.7,1026.14,519.71Z" transform="translate(-2)"/>
        <path class="cls-7" d="M1108.26,508.66q-15,6-30,11.56a17,17,0,0,1,.26-8.62c.83-3,3-6.93,6.43-11.89a28.47,28.47,0,0,0,3.7-6.53,5,5,0,0,0,0-3.32,3.58,3.58,0,0,0-2.2-2,4.72,4.72,0,0,0-3.38.12,4.54,4.54,0,0,0-2.6,2.23,6.62,6.62,0,0,0-.06,4.38q-5,1.5-10.05,2.93a14.49,14.49,0,0,1-.19-6.66,10,10,0,0,1,3-4.84,22.18,22.18,0,0,1,7.15-4,25.15,25.15,0,0,1,8.31-2,10.62,10.62,0,0,1,5.82,1.49,9,9,0,0,1,3.74,4.27,10,10,0,0,1,.49,6.3q-.75,3.4-4.43,8.55c-1.47,2-2.45,3.4-2.92,4.15s-1,1.71-1.58,2.86q7.74-3,15.45-6.1Z" transform="translate(-2)"/>
      </g>
    </g>
    <g class="cls-6">
      <g>
        <path class="cls-7" d="M401.66,539q4.44,1.8,8.88,3.55a12.28,12.28,0,0,1,4,2.32,7.33,7.33,0,0,1,1.91,2.94,8.21,8.21,0,0,1,.38,3.47,13.51,13.51,0,0,1-.92,3.68,12.3,12.3,0,0,1-2.51,4.2,8.18,8.18,0,0,1-3.07,1.9,7.31,7.31,0,0,1-3.33.36,16.59,16.59,0,0,1-3.85-.93c-3-1.2-6.05-2.4-9.08-3.63Q397.85,548,401.66,539Zm4.28,6.45-4.09,9.79,1.49.59a7.29,7.29,0,0,0,2.88.68,3,3,0,0,0,1.81-.85,8.45,8.45,0,0,0,1.73-2.94c.78-1.9,1-3.34.59-4.3a4.75,4.75,0,0,0-2.91-2.37Z" transform="translate(-2)"/>
        <path class="cls-7" d="M422.61,547.23q8,3,16.1,5.92c-.49,1.29-1,2.59-1.46,3.88q-5.07-1.81-10.13-3.69L426,556.21q4.71,1.75,9.43,3.44c-.46,1.24-.93,2.47-1.39,3.71q-4.74-1.71-9.47-3.46l-1.38,3.57q5.28,1.95,10.55,3.84l-1.53,4.11q-8.39-3-16.75-6.16Q419,556.25,422.61,547.23Z" transform="translate(-2)"/>
        <path class="cls-7" d="M448.85,573.82c-2.32-.79-4.65-1.58-7-2.39l-2.06,2.67c-2.09-.73-4.19-1.46-6.28-2.21q7.09-7.75,14.07-15.6l6.58,2.26q.44,10.38,1.06,20.78l-6.46-2.15Zm.12-4.38c0-2.44.1-4.87.16-7.31l-4.5,5.82Z" transform="translate(-2)"/>
        <path class="cls-7" d="M463.45,561.63c2,.66,4,1.32,6,2q-2.31,6.93-4.6,13.86c3.19,1,6.4,2,9.6,3-.49,1.51-1,3-1.45,4.54q-7.92-2.44-15.83-5Q460.31,570.8,463.45,561.63Z" transform="translate(-2)"/>
        <path class="cls-7" d="M481.68,567.41q8.11,2.48,16.25,4.81l-1.17,4q-5.11-1.47-10.23-3c-.3,1-.61,2-.91,2.94q4.75,1.43,9.52,2.79c-.37,1.26-.74,2.52-1.12,3.78q-4.78-1.37-9.56-2.8c-.38,1.22-.75,2.44-1.12,3.65q5.32,1.59,10.65,3.11l-1.23,4.21q-8.47-2.42-16.92-5Q478.75,576.63,481.68,567.41Z" transform="translate(-2)"/>
        <path class="cls-7" d="M496.18,591.84q2.69-9.3,5.4-18.59,5.07,1.44,10.13,2.8a16.34,16.34,0,0,1,4.19,1.61,4.75,4.75,0,0,1,2,2.34,5.64,5.64,0,0,1-1.33,5.76,5.54,5.54,0,0,1-2.43,1.32,8,8,0,0,1-2.37.17,6.34,6.34,0,0,1,1.42,1.11,6.76,6.76,0,0,1,.72,1.24,7.22,7.22,0,0,1,.55,1.39q.76,3.1,1.56,6.2c-2.35-.61-4.69-1.22-7-1.85q-.88-3.29-1.74-6.59a4.4,4.4,0,0,0-.72-1.74,2.72,2.72,0,0,0-1.39-.84l-.54-.15-2.13,7.56Zm9.37-9.34,2.58.71a11.46,11.46,0,0,0,1.7.18,1.83,1.83,0,0,0,1.62-2.84,3.91,3.91,0,0,0-2.15-1.1l-2.68-.74C506.26,580,505.9,581.24,505.55,582.5Z" transform="translate(-2)"/>
        <path class="cls-7" d="M532,581.3l8,1.94q.15,6.07.35,12.17,2.93-5.35,5.82-10.73,4,.93,8,1.81-2.14,9.43-4.26,18.87l-5.12-1.15c1.11-4.79,2.21-9.58,3.33-14.37q-3.62,6.75-7.27,13.47l-4.62-1.08q-.24-7.63-.4-15.26-1.77,7.15-3.53,14.32l-5.11-1.24Z" transform="translate(-2)"/>
        <path class="cls-7" d="M571.05,590l6.11,1.22-2.25,11.29a9.12,9.12,0,0,1-1.18,3.07,7,7,0,0,1-2.27,2.27,7.39,7.39,0,0,1-2.82,1.07,13.47,13.47,0,0,1-4.51-.26,28.34,28.34,0,0,1-3.18-.86,8.89,8.89,0,0,1-2.76-1.38,7.43,7.43,0,0,1-1.79-2.08,6.18,6.18,0,0,1-.85-2.47,10.64,10.64,0,0,1,.13-3.31l2.49-11.25,6.11,1.3q-1.24,5.76-2.47,11.53a3.27,3.27,0,0,0,.39,2.61,4.17,4.17,0,0,0,5,1.05,3.27,3.27,0,0,0,1.42-2.25Q569.86,595.82,571.05,590Z" transform="translate(-2)"/>
        <path class="cls-7" d="M577.67,604.53l6,.77a4.07,4.07,0,0,0,.39,2.22,3.43,3.43,0,0,0,2.54,1.65,3.23,3.23,0,0,0,2.17-.22,1.75,1.75,0,0,0,1-1.24,1.72,1.72,0,0,0-.45-1.44,8.45,8.45,0,0,0-3-1.68,13.82,13.82,0,0,1-5.38-3.39,4.56,4.56,0,0,1-1-4,5,5,0,0,1,1.43-2.6,6,6,0,0,1,3.06-1.54,13.35,13.35,0,0,1,5,.15,10.61,10.61,0,0,1,5.57,2.39,5.91,5.91,0,0,1,1.62,4.73l-5.88-.69a3,3,0,0,0-.63-2,3.36,3.36,0,0,0-1.94-1,2.62,2.62,0,0,0-1.7.14,1.34,1.34,0,0,0-.75,1,1.07,1.07,0,0,0,.3.89,5.08,5.08,0,0,0,1.94,1.08,28.63,28.63,0,0,1,5.51,2.72,6,6,0,0,1,2.18,2.56,5.18,5.18,0,0,1,.32,3,6,6,0,0,1-1.67,3.2,6.75,6.75,0,0,1-3.42,1.81,12.77,12.77,0,0,1-5-.07c-3.45-.63-5.72-1.7-6.81-3.19A7.23,7.23,0,0,1,577.67,604.53Z" transform="translate(-2)"/>
        <path class="cls-7" d="M599.86,595.39q9.35,1.59,18.68,3c-.23,1.57-.47,3.14-.71,4.72l-6.31-1q-1.14,7.18-2.27,14.38l-6.27-1q1.17-7.18,2.37-14.37l-6.3-1Z" transform="translate(-2)"/>
        <path class="cls-7" d="M630.69,600.09c3,.42,6.09.81,9.14,1.2a11.58,11.58,0,0,1,4.29,1.24,7.21,7.21,0,0,1,2.51,2.36,8.38,8.38,0,0,1,1.22,3.26,14,14,0,0,1,.06,3.78,12.35,12.35,0,0,1-1.3,4.69,7.87,7.87,0,0,1-2.39,2.6,6.8,6.8,0,0,1-3,1.18,15.36,15.36,0,0,1-3.81.06c-3.12-.39-6.23-.79-9.34-1.22Q629.37,609.67,630.69,600.09Zm5.58,5.16c-.45,3.49-.91,7-1.36,10.47l1.53.2a6.76,6.76,0,0,0,2.84-.07,2.85,2.85,0,0,0,1.48-1.27,8.68,8.68,0,0,0,.88-3.28c.25-2,.08-3.46-.52-4.3a4.61,4.61,0,0,0-3.3-1.56Z" transform="translate(-2)"/>
        <path class="cls-7" d="M650.17,622q1.08-9.62,2.17-19.21c3.42.38,6.85.75,10.27,1.09a15.84,15.84,0,0,1,4.33.9,4.67,4.67,0,0,1,2.27,2,5.74,5.74,0,0,1-.33,5.91,5.47,5.47,0,0,1-2.15,1.69,7.61,7.61,0,0,1-2.26.55,6.42,6.42,0,0,1,1.55.87,6.08,6.08,0,0,1,.9,1.11,7.59,7.59,0,0,1,.76,1.27q1.26,2.94,2.53,5.86c-2.37-.21-4.74-.44-7.12-.67-.92-2.07-1.85-4.14-2.76-6.21a4.61,4.61,0,0,0-1-1.6,2.75,2.75,0,0,0-1.48-.6l-.55-.06c-.28,2.6-.55,5.2-.83,7.8Zm7.53-10.75,2.62.27a9.11,9.11,0,0,0,1.68-.1,1.63,1.63,0,0,0,1.07-.5,1.73,1.73,0,0,0,.5-1.07,1.78,1.78,0,0,0-.47-1.5,4,4,0,0,0-2.26-.73l-2.72-.28Z" transform="translate(-2)"/>
        <path class="cls-7" d="M685,622c-2.38-.18-4.75-.36-7.13-.56l-1.26,3.1-6.43-.56q4.71-9.29,9.26-18.6l6.73.53q3,9.92,6.21,19.81c-2.2-.14-4.4-.3-6.6-.46Zm-1-4.26q-.85-3.56-1.69-7.1-1.37,3.38-2.75,6.75Z" transform="translate(-2)"/>
        <path class="cls-7" d="M693.8,606.47l5.87.37q.72,5.46,1.47,10.93,1.89-5.31,3.73-10.63l5.84.3q1.29,5.47,2.61,10.94,1.32-5.36,2.6-10.7l5.84.23q-2.57,9.57-5.21,19.14l-6.18-.28q-1.5-6.16-3-12.33-2.07,6-4.19,12c-2.06-.11-4.13-.23-6.19-.36Q695.38,616.26,693.8,606.47Z" transform="translate(-2)"/>
        <path class="cls-7" d="M731.69,608.22q9.39.24,18.78.29l0,4.77-6.33-.06-.18,14.56-6.31-.1q.14-7.27.28-14.55l-6.34-.14C731.6,611.4,731.65,609.81,731.69,608.22Z" transform="translate(-2)"/>
        <path class="cls-7" d="M751.49,618.19a9.75,9.75,0,0,1,2.77-7.36c1.82-1.76,4.35-2.64,7.59-2.66s5.9.81,7.73,2.51a9.55,9.55,0,0,1,2.84,7.21,11.28,11.28,0,0,1-1.09,5.57,8.28,8.28,0,0,1-3.43,3.43,11.7,11.7,0,0,1-5.66,1.26,13.51,13.51,0,0,1-5.72-1,8.45,8.45,0,0,1-3.65-3.3A10.5,10.5,0,0,1,751.49,618.19Zm6.24,0a6.24,6.24,0,0,0,1.16,4.2,4.44,4.44,0,0,0,6.23,0c.73-.84,1.08-2.35,1.06-4.51a5.8,5.8,0,0,0-1.19-4,4,4,0,0,0-3.12-1.24,3.86,3.86,0,0,0-3,1.3A6.36,6.36,0,0,0,757.73,618.22Z" transform="translate(-2)"/>
        <path class="cls-7" d="M796.56,607.28q.45,9.83.88,19.64c-1.91.09-3.82.17-5.74.24q-.24-6.43-.49-12.87a17.91,17.91,0,0,1-2.6,1.72,21,21,0,0,1-3.19,1.29c0-1.47-.09-2.93-.14-4.4a13.71,13.71,0,0,0,4.35-2.27,8.67,8.67,0,0,0,2.34-3.15Z" transform="translate(-2)"/>
        <path class="cls-7" d="M819,610.71c-1.84.35-3.67.69-5.51,1a2.76,2.76,0,0,0-.83-1.53,1.81,1.81,0,0,0-1.29-.39,2.36,2.36,0,0,0-2,1.44,11.6,11.6,0,0,0-.58,4.1,7.54,7.54,0,0,1,2-1.56,6.16,6.16,0,0,1,2.42-.61,6.27,6.27,0,0,1,4.67,1.55,6.34,6.34,0,0,1,2.19,4.54,6.71,6.71,0,0,1-.71,3.55,6,6,0,0,1-2.48,2.56,9.58,9.58,0,0,1-4.19,1.08,10.4,10.4,0,0,1-5-.71,7,7,0,0,1-3.12-3,12.7,12.7,0,0,1-1.39-5.68q-.27-5.22,1.89-7.77a8.29,8.29,0,0,1,6.17-2.79,10.69,10.69,0,0,1,3.8.3,5.88,5.88,0,0,1,2.41,1.41A6.94,6.94,0,0,1,819,610.71ZM809.21,620a3.47,3.47,0,0,0,1,2.41,2.65,2.65,0,0,0,2.09.76,2.41,2.41,0,0,0,1.8-.91,3.37,3.37,0,0,0,.6-2.44,3.62,3.62,0,0,0-.93-2.44,2.47,2.47,0,0,0-2-.74,2.62,2.62,0,0,0-1.91.94A3.3,3.3,0,0,0,809.21,620Z" transform="translate(-2)"/>
        <path class="cls-7" d="M845.26,620.39c-2.37.23-4.75.44-7.12.65l-.72,3.27-6.43.53q3.06-9.93,6-19.89l6.73-.62q4.68,9.25,9.51,18.48l-6.59.66C846.14,622.44,845.7,621.42,845.26,620.39Zm-1.69-4c-1-2.23-1.92-4.47-2.88-6.71-.51,2.37-1,4.75-1.56,7.12Z" transform="translate(-2)"/>
        <path class="cls-7" d="M853.17,603.38l5.75-.63q4.37,4.89,8.81,9.74c-.43-3.54-.87-7.07-1.3-10.61,1.94-.23,3.87-.47,5.81-.72q1.23,9.58,2.45,19.17l-5.92.74q-4.46-4.82-8.82-9.66c.4,3.51.79,7,1.19,10.54-2,.22-3.95.44-5.92.64Q854.2,613,853.17,603.38Z" transform="translate(-2)"/>
        <path class="cls-7" d="M876.41,600.62q4.58-.6,9.15-1.24a11.66,11.66,0,0,1,4.47.08,7.22,7.22,0,0,1,3.06,1.61,8.56,8.56,0,0,1,2,2.83,13.91,13.91,0,0,1,1.06,3.63,12.38,12.38,0,0,1,0,4.86,7.88,7.88,0,0,1-1.63,3.13,6.86,6.86,0,0,1-2.6,1.94,15.25,15.25,0,0,1-3.67,1.06c-3.11.43-6.22.86-9.33,1.27Zm6.77,3.51q.72,5.24,1.46,10.46l1.53-.21a6.6,6.6,0,0,0,2.73-.81A2.88,2.88,0,0,0,890,612a8.75,8.75,0,0,0,0-3.38q-.45-3-1.65-4a4.55,4.55,0,0,0-3.6-.63Z" transform="translate(-2)"/>
        <path class="cls-7" d="M908.29,609c2-.44,3.91-.89,5.87-1.35a4.13,4.13,0,0,0,1.14,2,3.44,3.44,0,0,0,3,.68,3.24,3.24,0,0,0,2-.95,1.78,1.78,0,0,0,.48-1.5,1.76,1.76,0,0,0-.93-1.2,8.47,8.47,0,0,0-3.38-.55,13.94,13.94,0,0,1-6.23-1.32,4.64,4.64,0,0,1-2.37-3.39,5,5,0,0,1,.42-2.93,6,6,0,0,1,2.33-2.5,13.27,13.27,0,0,1,4.76-1.58,10.59,10.59,0,0,1,6.05.32,6,6,0,0,1,3.19,3.88l-5.76,1.37a3,3,0,0,0-1.31-1.69,3.28,3.28,0,0,0-2.16-.23,2.58,2.58,0,0,0-1.54.71,1.36,1.36,0,0,0-.36,1.16,1.08,1.08,0,0,0,.6.74,5.32,5.32,0,0,0,2.19.34,28.55,28.55,0,0,1,6.12.65,6.27,6.27,0,0,1,2.95,1.64,5.2,5.2,0,0,1,1.32,2.67,5.88,5.88,0,0,1-.44,3.57,6.71,6.71,0,0,1-2.58,2.88,13,13,0,0,1-4.74,1.67c-3.46.6-6,.37-7.49-.65A7.29,7.29,0,0,1,908.29,609Z" transform="translate(-2)"/>
        <path class="cls-7" d="M925.88,592.79q9.33-1.74,18.63-3.66l1,4.67-6.28,1.28,2.91,14.26-6.26,1.23q-1.41-7.14-2.81-14.28l-6.29,1.19C926.47,595.91,926.18,594.35,925.88,592.79Z" transform="translate(-2)"/>
        <path class="cls-7" d="M961.15,602.07c-2.35.52-4.71,1-7.07,1.54l-.3,3.33-6.39,1.34q1.83-10.24,3.47-20.49c2.23-.48,4.45-1,6.68-1.46q5.87,8.61,11.87,17.15c-2.18.5-4.36,1-6.54,1.48C962.3,604,961.72,603,961.15,602.07Zm-2.2-3.79q-1.87-3.15-3.73-6.3-.33,3.63-.68,7.26Z" transform="translate(-2)"/>
        <path class="cls-7" d="M967,584.19l5.7-1.34q5,4.3,10.08,8.56L980.1,581l5.75-1.44q2.45,9.36,4.88,18.72c-2,.49-3.91,1-5.87,1.47q-5.08-4.21-10.08-8.48l2.52,10.32c-1.95.47-3.91.93-5.86,1.38Q969.21,593.61,967,584.19Z" transform="translate(-2)"/>
        <path class="cls-7" d="M990,578.54c3-.78,6-1.58,9-2.39a11.93,11.93,0,0,1,4.52-.49,7.39,7.39,0,0,1,3.28,1.21,8.35,8.35,0,0,1,2.43,2.55,13.36,13.36,0,0,1,1.52,3.46,12.09,12.09,0,0,1,.61,4.83,7.89,7.89,0,0,1-1.24,3.32,7,7,0,0,1-2.38,2.25,16,16,0,0,1-3.56,1.51c-3.08.83-6.17,1.65-9.25,2.44Q992.47,587.89,990,578.54Zm7.25,2.62,2.79,10.2,1.52-.4a6.89,6.89,0,0,0,2.64-1.15,2.82,2.82,0,0,0,.9-1.74,8.58,8.58,0,0,0-.45-3.36c-.55-2-1.28-3.24-2.17-3.78a4.71,4.71,0,0,0-3.71-.17Z" transform="translate(-2)"/>
        <path class="cls-7" d="M1022.51,579.6a9.58,9.58,0,0,1,.54-7.86c1.27-2.22,3.49-3.8,6.67-4.77s6-1,8.35.12a9.63,9.63,0,0,1,4.93,6.07,11.1,11.1,0,0,1,.57,5.66,8.26,8.26,0,0,1-2.36,4.29A12.42,12.42,0,0,1,1036,586a14.25,14.25,0,0,1-5.92.71,8.59,8.59,0,0,1-4.57-2.09A10.4,10.4,0,0,1,1022.51,579.6Zm6.14-1.8a6.21,6.21,0,0,0,2.37,3.68,4.15,4.15,0,0,0,3.44.3,4.07,4.07,0,0,0,2.69-2.15q.7-1.53-.29-4.62a5.77,5.77,0,0,0-2.35-3.46,4.25,4.25,0,0,0-3.43-.26,3.93,3.93,0,0,0-2.57,2.12Q1027.76,575,1028.65,577.8Z" transform="translate(-2)"/>
        <path class="cls-7" d="M1043.3,563.05l5.65-1.84q5.41,3.85,10.92,7.65c-1.19-3.37-2.37-6.74-3.57-10.11l5.69-1.94q3.29,9.12,6.55,18.24-2.89,1-5.81,2-5.49-3.75-10.91-7.57,1.73,5,3.43,10.07l-5.81,1.89Q1046.4,572.22,1043.3,563.05Z" transform="translate(-2)"/>
        <path class="cls-7" d="M1086.31,547.69q3.63,9.18,7.22,18.36l-5.58,2.08q-2.31-6-4.64-12.06a17.91,17.91,0,0,1-2,2.47,21.23,21.23,0,0,1-2.72,2.25l-1.56-4.13a14.12,14.12,0,0,0,3.55-3.56,8.52,8.52,0,0,0,1.28-3.74Z" transform="translate(-2)"/>
        <path class="cls-7" d="M1092.39,545.74q7.88-3,15.71-6.18c.48,1.12,1,2.24,1.43,3.35a20.13,20.13,0,0,0-1.88,5.08,22.56,22.56,0,0,0-.41,6.45,25.55,25.55,0,0,0,1.21,5.88l-5.49,2.14a25.31,25.31,0,0,1,.76-16.24q-4.82,1.9-9.63,3.74Z" transform="translate(-2)"/>
      </g>
    </g>
  </g>
  <g>
    <path class="cls-8" d="M326.94,868.53Q270,851.06,214.3,828.67c-7.24-2.91-11.07-10.34-8.53-16.44l55.43-134c2.54-6.1,9.79-8.93,16.14-6.38q49,19.71,99.2,35.1A12.34,12.34,0,0,1,385,722.05q-20.58,69.53-41.17,139C341.94,867.41,334.34,870.81,326.94,868.53Z" transform="translate(-2)"/>
    <path class="cls-8" d="M557.59,918.75q-58.53-7.69-116.46-20.31c-7.53-1.64-12.46-8.31-11-14.74Q446.28,813,462.41,742.33a12.3,12.3,0,0,1,14.68-9q51,11.1,102.56,17.89a12.27,12.27,0,0,1,10.72,13.45q-8.76,72-17.51,143.94C572.07,915.14,565.2,919.76,557.59,918.75Z" transform="translate(-2)"/>
    <path class="cls-8" d="M807.29,929.38q-58.87,2.7-117.81.5c-7.65-.29-13.65-6-13.32-12.58L683,772.46A12.27,12.27,0,0,1,695.8,761q51.86,1.93,103.74-.44a12.27,12.27,0,0,1,12.9,11.36l8.07,144.78C820.89,923.28,814.94,929,807.29,929.38Z" transform="translate(-2)"/>
    <path class="cls-8" d="M1039.49,899.36Q981.58,911.8,923,919.31c-7.61,1-14.47-3.65-15.24-10.21l-17.07-144a12.28,12.28,0,0,1,10.75-13.42Q953,745.06,1004,734.12a12.31,12.31,0,0,1,14.65,9.07l31.83,141.46C1052,891.09,1047,897.75,1039.49,899.36Z" transform="translate(-2)"/>
    <path class="cls-8" d="M1270.57,828.67q-55.66,22.38-112.64,39.86c-7.4,2.28-15-1.12-16.86-7.45q-20.6-69.51-41.18-139a12.35,12.35,0,0,1,8.44-15.08q50.13-15.39,99.2-35.1c6.35-2.55,13.6.28,16.14,6.38q27.7,67,55.43,134C1281.63,818.33,1277.81,825.76,1270.57,828.67Z" transform="translate(-2)"/>
  </g>
</svg>
