<svg xmlns="http://www.w3.org/2000/svg" viewBox="0 0 180.1 239.08"><defs><style>.cls-1{fill:#5236cb}.cls-2{fill:#53cb8f}.cls-3{fill:#fefefe}</style></defs><title>confirm-email</title><g id="Layer_2" data-name="Layer 2"><g id="Layer_1-2" data-name="Layer 1"><path d="M166.25,102.14c4.08,3.4,8.1,6.89,12.28,10.16,1.61,1.25,1.57,2.72,1.57,4.39q0,55.94,0,111.88c0,5.27-2.85,8.62-8.1,9.73-5.92,1.25-11.95.62-17.91.63q-70.18.1-140.37-.06C3.41,238.86.1,235.46.1,225.11c0-35.63,0-71.26-.1-106.89,0-3.29.83-5.56,3.5-7.53,3.6-2.66,6.92-5.7,10.37-8.58.06,3.5.26,7,.13,10.48a6.46,6.46,0,0,0,2.51,5.61q25.85,22,51.58,44.15c2.22,1.91,3.94,1.72,6.08,0,3.11-2.5,6.36-4.84,9.62-7.15,4.13-2.92,8.38-2.94,12.53-.05,3.27,2.29,6.55,4.59,9.62,7.14,2.4,2,4.23,1.68,6.47-.25,14.24-12.28,28.16-25,43-36.5C163.56,119.21,167.93,112.4,166.25,102.14Z" class="cls-1"/><path d="M166.25,102.14c1.68,10.26-2.69,17.07-10.84,23.39-14.84,11.51-28.76,24.22-43,36.5-2.24,1.93-4.07,2.25-6.47.25-3.07-2.55-6.35-4.85-9.62-7.14-4.15-2.89-8.4-2.87-12.53.05-3.26,2.31-6.51,4.65-9.62,7.15-2.14,1.73-3.86,1.92-6.08,0Q42.38,140.18,16.51,118.2A6.46,6.46,0,0,1,14,112.59c.13-3.48-.07-7-.13-10.48.06-10.28.08-20.56.23-30.84,0-1.42-1-4,1.55-3.89s5.78-2,7.88,1.75c3.83,6.8,9.24,6.79,13.12.21,1.81-3.09,5.13-3.07,6.91.07.9,1.59,1.67,3.27,3.69,3.73,4.81,2.78,7.28-.27,9.53-3.83,1.85-2.93,4.85-3,6.59,0,4.06,6.84,9.17,6.8,13.48-.09,1.77-2.82,4.77-2.72,6.58.23,4.07,6.63,9.34,6.68,13.25-.14.92-1.6,1.74-2.09,3.37-2.06s2.88.1,3.33,2.08c.78,3.39,3.27,4.77,6.56,4.9s5.11-2,6.64-4.47c2.2-3.57,4.73-3.51,7,0s4.84,6,9.32,3.42c2-.46,2.79-2.13,3.7-3.72,1.79-3.16,5-3.17,6.87,0,3.85,6.54,9.39,6.58,13.14-.18,2.1-3.8,5.26-1.66,7.85-1.79s1.51,2.49,1.53,3.9C166.17,81.6,166.19,91.87,166.25,102.14Zm-95.6,12.48a2.59,2.59,0,0,0-2.25,1.55c-.56,1.24.07,2.27.92,3.13,4.09,4.13,8.25,8.2,12.29,12.38,1.4,1.45,2.31,1.21,3.63-.12,8.3-8.39,16.67-16.7,25-25,1.17-1.18,2.66-2.46,1.12-4.23-1.78-2-3.24-.55-4.57.78C101.84,108,97,113,92,117.83c-2.83,2.72-5.21,7.7-8.61,7.51-2.9-.17-5.54-4.75-8.32-7.35C73.7,116.76,72.68,115.13,70.65,114.62Z" class="cls-2"/><path d="M132.93,73.17c-4.48,2.59-7.11,0-9.32-3.42s-4.83-3.61-7,0c-1.53,2.5-3.37,4.59-6.64,4.47s-5.78-1.51-6.56-4.9c-.45-2-1.74-2.06-3.33-2.08s-2.45.46-3.37,2.06c-3.91,6.82-9.18,6.77-13.25.14-1.81-3-4.81-3.05-6.58-.23-4.31,6.89-9.42,6.93-13.48.09-1.74-2.92-4.74-2.88-6.59,0-2.25,3.56-4.72,6.61-9.53,3.83C59.07,62.88,70.84,52.58,82.71,42.38c5.14-4.41,9.63-4.41,14.77,0C109.35,52.59,121.12,62.91,132.93,73.17Z" class="cls-1"/><path d="M87.48,13.15c0-3.16,0-6.32,0-9.47C87.53,2,87.81.11,90,0s2.66,1.71,2.68,3.45c.06,6.15,0,12.3,0,18.44,0,1.73-.34,3.64-2.47,3.68-2.49.05-2.66-2.07-2.69-3.95C87.44,18.8,87.48,16,87.48,13.15Z" class="cls-2"/><path d="M52.9,9.8c1.63,0,2.44,1.12,3.11,2.28q4.64,8,9.21,16c.89,1.55,1.5,3.2-.44,4.33s-3-.47-3.87-1.93q-4.65-8-9.26-16C50.48,12.49,50.26,10.74,52.9,9.8Z" class="cls-2"/><path d="M116.59,32.88c-2.25-.6-3.1-2.06-2.12-3.81C117.85,23,121.41,17,125,11a2.14,2.14,0,0,1,3-.86A2.12,2.12,0,0,1,129.15,13c-3.6,6.36-7.29,12.67-11,19C117.84,32.47,117,32.64,116.59,32.88Z" class="cls-2"/><path d="M46.78,50c-.65,1.79-2,2.68-3.79,1.65-6-3.4-12-6.92-18-10.44a2.36,2.36,0,0,1,2.35-4.1q9.06,5.09,18,10.32A2.65,2.65,0,0,1,46.78,50Z" class="cls-2"/><path d="M153.87,36.81a2.32,2.32,0,0,1,2.29,1.56,2.28,2.28,0,0,1-1.11,3c-6,3.5-12,7-18,10.42a2.34,2.34,0,0,1-3.38-1,2.06,2.06,0,0,1,.83-3c6.1-3.61,12.27-7.11,18.43-10.63A4,4,0,0,1,153.87,36.81Z" class="cls-2"/><path d="M70.65,114.62c2,.51,3,2.14,4.37,3.37,2.78,2.6,5.42,7.18,8.32,7.35,3.4.19,5.78-4.79,8.61-7.51,5-4.84,9.89-9.85,14.84-14.77,1.33-1.33,2.79-2.82,4.57-.78,1.54,1.77,0,3-1.12,4.23-8.33,8.35-16.7,16.66-25,25-1.32,1.33-2.23,1.57-3.63.12-4-4.18-8.2-8.25-12.29-12.38-.85-.86-1.48-1.89-.92-3.13A2.59,2.59,0,0,1,70.65,114.62Z" class="cls-3"/></g></g></svg>